<?xml version="1.0" standalone="no"?>
<!DOCTYPE svg PUBLIC "-//W3C//DTD SVG 1.1//EN" "http://www.w3.org/Graphics/SVG/1.1/DTD/svg11.dtd" >
<svg>
<metadata>
Created by FontForge 20110222 at Mon Jun 10 13:38:57 2013
 By www-data
Copyright (c) Kannada Ganaka Parishat, 2001. All rights reserved.
</metadata>
<defs>
<font id="Nudi05k" horiz-adv-x="15" >
  <font-face 
    font-family="Nudi 05 k"
    font-weight="400"
    font-stretch="normal"
    units-per-em="1000"
    panose-1="2 0 0 0 0 0 0 0 0 0"
    ascent="800"
    descent="-200"
    x-height="450"
    cap-height="647"
    bbox="-604 -489 1182 666"
    underline-thickness="50"
    underline-position="-75"
    unicode-range="U+0020-2039"
  />
    <missing-glyph />
    <glyph glyph-name="space" unicode=" " horiz-adv-x="350" 
 />
    <glyph glyph-name="exclam" unicode="!" horiz-adv-x="221" 
d="M160 477l-39 -329h-22l-38 328q-1 27 11.5 46.5t38.5 19.5t38 -18q9 -18 9 -27zM159 50q0 -47 -48 -47q-49 0 -49 47q0 20 14.5 33.5t34.5 13.5t34 -13.5t14 -33.5z" />
    <glyph glyph-name="quotedbl" unicode="&#x22;" horiz-adv-x="286" 
d="M238 603l-2 -28l-5 -33l-19 -98h-17l-25 155q0 40 34 40q36 0 34 -36zM115 603l-9 -60l-17 -99h-15l-24 128q-2 10 -2 27q0 40 33 40q34 0 34 -36z" />
    <glyph glyph-name="numbersign" unicode="#" horiz-adv-x="436" 
d="M385 109h-95l-33 -151h-29l33 151h-120l-33 -151h-30l34 151h-61v30h66l24 120h-90v28h97l32 160h29l-32 -160h118l35 160h29l-33 -160h59v-28h-65l-25 -120h90v-30zM291 259h-120l-25 -120h120z" />
    <glyph glyph-name="dollar" unicode="$" horiz-adv-x="373" 
d="M322 117q0 -51 -40 -84t-92 -33v-38h-21v38q-38 0 -60 6l-58 16v95h14q15 -90 104 -99v194q-78 47 -100 82q-18 28 -18 62q0 49 36 78q31 26 82 31v31h21v-31l46 -6l64 -24v-99h-13q-13 83 -57 98q-16 8 -40 8v-169q69 -48 86 -64q46 -44 46 -92zM169 287v155
q-66 -12 -66 -65q0 -48 66 -90zM269 101q0 42 -79 97v-180q27 3 39 12q40 30 40 71z" />
    <glyph glyph-name="percent" unicode="%" horiz-adv-x="498" 
d="M242 365q0 -52 -23 -84q-28 -40 -74 -40q-24 0 -38 8q-65 37 -60 116l2 30l6 22q28 74 91 74q48 0 74 -41q22 -34 22 -85zM436 492l-337 -490h-30l335 490h32zM451 133l-3 -24l-5 -28q-25 -71 -88 -71q-47 0 -74 39q-24 35 -24 84q0 57 28 91q33 33 68 33q37 0 64 -29
q24 -26 31 -64q3 -15 3 -31zM189 364q0 108 -44 108q-42 0 -42 -106v-37q0 -70 41 -70q45 0 45 105zM398 133q0 107 -44 107t-44 -109q0 -102 44 -102t44 104z" />
    <glyph glyph-name="ampersand" unicode="&#x26;" horiz-adv-x="602" 
d="M553 93q-27 -93 -108 -93q-59 0 -121 66q-80 -66 -151 -66q-46 0 -85 25q-39 32 -39 76q0 92 143 170q-28 59 -28 104q0 51 34.5 82.5t86.5 31.5q38 0 65.5 -24t27.5 -61q0 -67 -114 -124l43 -72l49 -72q61 73 61 123q0 36 -33 39v13h145v-13l-27 -5l-17 -8
q-18 -13 -56 -79q-40 -69 -57 -90q56 -65 104 -65q51 0 63 51zM337 406q0 26 -14.5 42t-38.5 16q-27 0 -44 -18t-17 -45q0 -29 29 -99q85 43 85 104zM305 85l-63 91l-39 72q-82 -46 -82 -115q0 -41 23 -67t64 -26q43 0 97 45z" />
    <glyph glyph-name="quotesingle" unicode="'" horiz-adv-x="224" 
d="M177 598q0 -57 -34 -90q-31 -29 -79 -29q-11 0 -11 10t11 10q55 0 79 43q-14 -8 -31 -8q-27 0 -45.5 18.5t-18.5 45.5t18.5 46t45.5 19t46 -19t19 -46v0z" />
    <glyph glyph-name="parenleft" unicode="(" horiz-adv-x="320" 
d="M272 -141l-13 -13q-99 63 -154 156q-57 97 -57 212q0 224 211 366l11 -21q-81 -72 -117 -168q-8 -46 -22 -128l-6 -33l-1 -31q-6 -191 148 -340z" />
    <glyph glyph-name="parenright" unicode=")" horiz-adv-x="320" 
d="M272 184q0 -113 -57 -197q-48 -69 -154 -139l-11 21q85 79 117 152q29 108 29 178q0 77 -35 214q-19 41 -47 80q-31 42 -66 76l13 13q166 -107 201 -275q10 -52 10 -123z" />
    <glyph glyph-name="asterisk" unicode="*" horiz-adv-x="385" 
d="M337 339q-5 -18 -14 -25l-36 -16l-28 -7q-43 -11 -50 -15q33 -13 50 -16q77 -21 77 -50t-29 -29q-30 0 -66 45l-40 36l9 -49l15 -64q0 -14 -8.5 -25.5t-21.5 -11.5q-35 0 -35 38l9 45l12 36l4 31q-20 -14 -40 -35q-34 -36 -43.5 -41t-21.5 -5q-32 0 -32 29q0 26 32 38
l47 12l49 16q-13 9 -54.5 16.5t-55.5 17.5q-18 18 -18 32q0 28 29 28q26 -6 38 -15q8 -6 28.5 -30.5t41.5 -33.5l-5 28l-6 26l-10 40l-4 13q0 41 34 41q31 0 31 -38l-4 -14l-7 -39q-13 -32 -13 -57l21 15l18 17q32 36 41 39q11 7 26 7q30 0 30 -30z" />
    <glyph glyph-name="plus" unicode="+" horiz-adv-x="511" 
d="M465 191h-184l1 -191h-52v191h-184v50h184v191h51v-193h184v-48z" />
    <glyph glyph-name="comma" unicode="," horiz-adv-x="224" 
d="M177 64q0 -57 -32.5 -88t-80.5 -31q-11 0 -11 10t11 10q55 0 79 43q-14 -8 -31 -8q-27 0 -45.5 19t-18.5 46q0 26 18.5 45t45.5 19t46 -19t19 -45v-1z" />
    <glyph glyph-name="hyphen" unicode="-" horiz-adv-x="512" 
d="M456 186h-400v67h400v-67z" />
    <glyph glyph-name="period" unicode="." horiz-adv-x="214" 
d="M157 45q0 -18 -16.5 -33.5t-34.5 -15.5q-19 0 -34 14.5t-15 34.5q0 21 14 34.5t35 13.5q20 0 36 -13q15 -18 15 -35z" />
    <glyph glyph-name="slash" unicode="/" horiz-adv-x="378" 
d="M330 521l-233 -623h-49l231 623h51z" />
    <glyph glyph-name="zero" unicode="0" horiz-adv-x="600" 
d="M555 255q0 -106 -74.5 -180.5t-180.5 -74.5t-180.5 74.5t-74.5 180.5t74.5 180.5t180.5 74.5t180.5 -74.5t74.5 -180.5zM495 255q0 81 -57 138t-138 57t-138 -57t-57 -138t57 -138t138 -57t138 57t57 138z" />
    <glyph glyph-name="one" unicode="1" horiz-adv-x="590" 
d="M545 285q0 -151 -63 -267q-8 -16 -25 -16q-12 0 -21.5 8.5t-9.5 20.5q0 8 4 15q55 103 55 239q0 74 -55 120.5t-135 46.5q-79 0 -134.5 -44t-55.5 -114q0 -86 12 -141q11 -49 39 -108q3 -7 3 -14q0 -12 -9.5 -20.5t-21.5 -8.5q-18 0 -26 17q-31 65 -44 121
q-13 62 -13 154q0 100 79 162q72 56 171 56q101 0 172 -60q78 -65 78 -167z" />
    <glyph glyph-name="two" unicode="2" horiz-adv-x="572" 
d="M445 297q-36 -82 -117 -82q-58 0 -98 43q-44 46 -39 115q5 61 51 99t106 38q91 0 145 -79q48 -72 48 -175q0 -104 -49 -176q-54 -80 -147 -80h-284q-30 0 -30 30t30 30h284q64 0 102 61q34 55 34 135q0 79 -33 133q-37 61 -100 61q-47 0 -71.5 -26.5t-24.5 -63.5
q0 -35 19.5 -60t51.5 -25q47 1 67 46q8 18 26 18q32 0 32 -29q0 -6 -3 -13z" />
    <glyph glyph-name="three" unicode="3" horiz-adv-x="592" 
d="M555 115q-27 -62 -56 -86q-35 -29 -100 -29q-56 0 -96 50q-48 -50 -112 -50q-74 0 -117 41q-39 37 -39 90q0 50 36 85q40 39 107 39q73 0 125 -89q19 53 19 114q0 72 -26 118q-30 52 -83 52q-91 0 -91 -47q0 -19 15.5 -34t35.5 -15q15 0 30 12t18 23q7 22 28 22
q31 0 31 -29q0 -4 -1 -9q-22 -77 -105 -77q-46 0 -79 28q-36 31 -33 79q6 107 151 107q82 0 128 -71q41 -64 41 -161q0 -99 -42 -177q27 -41 59 -41q43 0 61 15t39 64q8 18 27 18q31 0 31 -29q0 -6 -2 -13zM270 103q-28 49 -40 63q-23 29 -52 29q-39 0 -61.5 -19.5
t-22.5 -45.5q0 -29 24 -48q27 -22 73 -22q45 0 79 43z" />
    <glyph glyph-name="four" unicode="4" horiz-adv-x="593" 
d="M548 366q0 -103 -99 -141q51 -29 51 -92q0 -70 -78 -105q-60 -28 -137 -28q-75 0 -127 26q-67 34 -67 103q0 64 55 93q-102 35 -101 135q2 153 122 153q44 0 73.5 -26.5t29.5 -72.5q0 -44 -33 -74t-75 -30q-24 0 -49 12q34 -65 194 -62q181 3 181 109q0 35 -29.5 59.5
t-69.5 24.5q-30 0 -30 30t30 30q61 0 108 -38q51 -42 51 -106zM167 450q-22 0 -35.5 -13.5t-13.5 -31.5q0 -38 44 -38q21 0 34.5 14.5t13.5 32.5q0 36 -43 36zM440 133q0 33 -44 51q-36 15 -84 13q-161 -6 -161 -68q0 -39 50 -56q35 -13 84 -13q48 0 93 14q62 21 62 59z" />
    <glyph glyph-name="five" unicode="5" horiz-adv-x="617" 
d="M572 387q0 -82 -93 -121q63 -88 63 -153q0 -43 -23 -75q-27 -38 -75 -38q-30 0 -30 30t30 30q38 0 38 53q0 49 -63 134q-36 -9 -96 -18v-18q0 -211 -148 -211q-58 0 -95 42q-35 39 -35 95q0 66 66 101q47 26 149 42q-5 43 -14 76q-33 -53 -93 -53q-47 0 -76.5 30.5
t-29.5 76.5q0 43 34 72q31 28 72 28q141 0 166 -220q38 6 60 10q-40 57 -40 98q0 47 36 79.5t81 32.5q54 0 85 -35.5t31 -87.5zM512 387q0 63 -56 63q-22 0 -39.5 -16t-17.5 -36q0 -26 43 -83q70 24 70 72zM203 413q0 37 -50 37q-19 0 -32.5 -12.5t-13.5 -27.5q0 -47 46 -47
q19 0 34.5 15.5t15.5 34.5zM263 211v8q-78 -12 -112 -26q-46 -21 -46 -56q0 -33 20 -55t50 -22q89 0 88 151z" />
    <glyph glyph-name="six" unicode="6" horiz-adv-x="532" 
d="M477 0h-300q-66 0 -109 50t-43 115q0 69 50 114q44 41 109 49q32 15 43 24q20 16 20 40q0 25 -23 41.5t-50 16.5q-24 0 -36 -14q-2 -28 -30 -28q-32 0 -30 32q3 33 30 50.5t66 17.5q52 0 91 -29q43 -33 42 -87q-1 -49 -28 -75q51 -24 56 -76q4 -50 -38 -83
q-36 -29 -80 -29t-78 24.5t-40 60.5q-14 -23 -14 -49q0 -44 27 -74.5t65 -30.5h300q30 0 30 -30t-30 -30zM274 235q0 17 -16.5 29.5t-40.5 12.5t-40.5 -12.5t-16.5 -29.5t16.5 -29.5t40.5 -12.5t40.5 12.5t16.5 29.5z" />
    <glyph glyph-name="seven" unicode="7" horiz-adv-x="566" 
d="M511 0h-385q-39 0 -68 25q-33 29 -33 80q0 88 97 128q89 23 179 46q96 25 96 78q0 39 -33.5 66t-83.5 27q-38 0 -72 -18q-37 -19 -37 -47q0 -20 19 -41q9 -9 9 -20q0 -12 -9.5 -21.5t-21.5 -9.5q-13 0 -22 11q-36 38 -36 79q0 52 51 89.5t119 37.5q76 0 127.5 -45.5
t51.5 -104.5q0 -101 -142 -139q-70 -15 -140 -31q-92 -29 -92 -85q0 -45 41 -45h385q30 0 30 -30t-30 -30z" />
    <glyph glyph-name="eight" unicode="8" horiz-adv-x="600" 
d="M540 450h-91q-27 0 -27 -8q0 -4 28 -34q34 -36 52 -70q27 -53 27 -113q0 -104 -76 -167q-70 -57 -169 -57q-100 0 -170 58q-78 64 -84 176q-4 91 26 170q40 105 121 105q49 0 78 -37q25 -32 25 -74q0 -47 -33 -76q-31 -25 -74 -25q-47 0 -78 28q-4 -27 -4 -54
q0 -91 44 -148q52 -69 154 -64q77 4 128.5 49t51.5 116q0 94 -70 151q-38 30 -38 67q0 28 23.5 47.5t64.5 19.5h91q30 0 30 -30t-30 -30zM220 399q0 22 -12 36.5t-31 14.5q-17 0 -34 -12q-21 -14 -21 -33q1 -48 50 -48q19 0 33.5 11t14.5 31z" />
    <glyph glyph-name="nine" unicode="9" horiz-adv-x="532" 
d="M477 450h-300q-38 0 -65 -30.5t-27 -74.5q0 -14 4 -27q54 49 117 49q55 0 87 -30q30 -26 30 -64t-29 -64q-32 -29 -87 -30q-64 -1 -116 39q-6 -19 -6 -36q1 -51 37 -86.5t87 -35.5q53 0 109 60q9 11 22 11q12 0 21.5 -9.5t9.5 -21.5q0 -11 -9 -20q-73 -80 -153 -80
q-79 0 -131.5 55t-52.5 127q0 45 22 84q-22 37 -22 79q0 65 43 115t109 50h300q30 0 30 -30t-30 -30zM263 273q0 12 -15 23t-42 11q-45 0 -83 -39q37 -29 86 -29q53 0 54 34z" />
    <glyph glyph-name="colon" unicode=":" horiz-adv-x="218" 
d="M175 324q0 -27 -19.5 -46t-46.5 -19t-46 19t-19 46t19 46.5t46 19.5t46.5 -19.5t19.5 -46.5zM175 64q0 -27 -19.5 -46.5t-46.5 -19.5t-46 19.5t-19 46.5t19 46.5t46 19.5t46.5 -19.5t19.5 -46.5z" />
    <glyph glyph-name="semicolon" unicode=";" horiz-adv-x="218" 
d="M175 324q0 -27 -19.5 -46t-46.5 -19t-46 19t-19 46t19 46.5t46 19.5t46.5 -19.5t19.5 -46.5zM173 64q0 -57 -32.5 -88t-80.5 -31q-10 0 -10 10t10 10q55 0 80 43q-15 -8 -31 -8q-27 0 -46 19t-19 46q0 26 19 45t46 19q26 0 45 -19t19 -45v-1z" />
    <glyph glyph-name="less" unicode="&#x3c;" horiz-adv-x="479" 
d="M431 -4l-383 182v41l383 166v-38l-330 -153l330 -153v-45z" />
    <glyph glyph-name="equal" unicode="=" horiz-adv-x="511" 
d="M456 284h-401v61h401v-61zM456 128h-401v61h401v-61z" />
    <glyph glyph-name="greater" unicode="&#x3e;" horiz-adv-x="479" 
d="M431 170l-382 -170v39l330 153l-330 146v45l382 -177v-36z" />
    <glyph glyph-name="question" unicode="?" horiz-adv-x="407" 
d="M345 383q0 -50 -36 -89l-66 -72q-35 -38 -35 -87h-24q0 39 25 99q7 16 18 35q43 79 43 121q0 32 -25 57.5t-57 25.5q-65 0 -65 -36q3 -13 13 -28t10 -26q0 -37 -40 -37q-43 0 -43 55q0 45 50 74q43 25 92 25q76 0 112 -41q28 -25 28 -76zM241 48q0 -17 -14 -30t-31 -13
q-18 0 -31 12.5t-13 30.5q0 43 44 43q45 0 45 -43z" />
    <glyph glyph-name="at" unicode="@" horiz-adv-x="699" 
d="M664 51q-39 -99 -123.5 -156.5t-189.5 -57.5q-88 0 -159.5 40.5t-115.5 115.5q-40 68 -40 157q0 93 45 176.5t122.5 129.5t174.5 46q159 0 226 -121q32 -58 32 -126q0 -52 -29 -131q-65 -124 -170 -124q-56 0 -56 49q0 21 6 54l-47 -53q-45 -50 -94 -50q-32 0 -50 27
q-15 24 -15 57q0 24 10 62q15 42 27 63q24 44 67 83q52 46 94 46q53 0 62 -50l12 39l57 8l-43 -144q-22 -73 -27 -103l-6 -35q0 -27 27 -27q21 0 62 25q42 32 68 95q24 58 24 116q0 62 -32 115t-87 80t-116 27q-88 0 -158.5 -45.5t-110.5 -125.5q-41 -83 -41 -173
q0 -85 36 -144q24 -40 45 -60q78 -76 202 -76q207 0 290 191h21zM428 268q0 52 -45 52q-33 -5 -55 -28q-44 -45 -70 -114q-21 -56 -21 -83q0 -20 11 -36q16 -15 31 -15q40 0 92 65l12 15l10 18q35 63 35 126z" />
    <glyph glyph-name="A" unicode="A" horiz-adv-x="540" 
d="M495 225q0 -93 -66 -159t-159 -66t-159 66t-66 159t66 159t159 66t159 -66t66 -159zM435 225q0 68 -48.5 116.5t-116.5 48.5t-116.5 -48.5t-48.5 -116.5t48.5 -116.5t116.5 -48.5t116.5 48.5t48.5 116.5z" />
    <glyph glyph-name="B" unicode="B" horiz-adv-x="293" 
d="M248 349q0 -43 -29.5 -72.5t-71.5 -29.5q-43 0 -72.5 29.5t-29.5 72.5q0 42 29.5 71.5t72.5 29.5q42 0 71.5 -29.5t29.5 -71.5zM248 102q0 -43 -29.5 -72.5t-71.5 -29.5q-43 0 -72.5 29.5t-29.5 72.5q0 42 29.5 71.5t72.5 29.5q42 0 71.5 -29.5t29.5 -71.5zM188 349
q0 17 -12 29t-29 12q-18 0 -30 -12t-12 -29q0 -18 12 -30t30 -12q17 0 29 12t12 30zM188 102q0 17 -12 29t-29 12q-18 0 -30 -12t-12 -29q0 -18 12 -30t30 -12q17 0 29 12t12 30z" />
    <glyph glyph-name="C" unicode="C" horiz-adv-x="650" 
d="M605 225q0 -118 -91 -177q-74 -48 -189 -48q-110 0 -185 47q-95 59 -95 178q0 96 21 147q32 78 115 78q46 0 73.5 -31t27.5 -80q0 -46 -32.5 -72.5t-76.5 -26.5q-39 0 -68 20v-35q0 -84 67 -128q58 -37 153 -37q100 0 156 38q64 42 64 127q0 165 -84 165
q-22 0 -37.5 -22.5t-15.5 -54.5q0 -39 15 -63.5t36 -24.5q31 0 31 -30t-31 -30h-211q-30 0 -30 30t30 30h120q-20 40 -20 88t25 87q32 50 88 50q144 0 144 -225zM222 339q1 51 -45 51q-19 0 -36 -11.5t-19 -27.5q-6 -52 48 -52q20 0 36 11t16 29z" />
    <glyph glyph-name="D" unicode="D" horiz-adv-x="650" 
d="M605 327q0 -69 -50 -118q18 -34 18 -73q0 -76 -90 -111q-64 -25 -158 -25q-110 0 -185 47q-95 59 -95 178q0 96 21 147q32 78 115 78q51 0 81 -30t30 -81q0 -45 -34 -77.5t-78 -32.5t-75 25v-29q0 -84 67 -128q58 -37 153 -37q75 0 128 19q62 22 62 62q0 16 -9 33
q-47 -24 -100 -24h-126q-30 0 -30 30t30 30h126q32 0 61 12q-28 25 -56 51q-32 33 -32 67q0 38 25 70q31 40 84 40q51 0 82 -29q35 -32 35 -94zM545 327q0 63 -57 63q-47 0 -47 -43q0 -19 14 -33q21 -19 62 -57q28 31 28 70zM181 390q-26 0 -40.5 -15t-14.5 -35
q0 -21 14 -36t40 -15q23 0 37.5 17t14.5 39q0 45 -51 45z" />
    <glyph glyph-name="E" unicode="E" horiz-adv-x="649" 
d="M604 236q0 -81 -46 -139q17 -35 17 -76q0 -51 -25 -106q-8 -18 -27 -18q-31 0 -31 29q0 7 3 13q20 44 20 81q0 17 -4 33q-76 -53 -187 -53q-80 0 -122 13q-75 22 -75 87q1 64 73 94q53 22 124 22q127 0 197 -68q23 38 23 88q0 154 -105 154q-37 0 -61 -23t-24 -58
q0 -31 -30 -31t-30 31t-28 56t-67 25q-41 0 -67 -21t-26 -52q0 -17 9 -35q4 -7 4 -14q0 -12 -9.5 -20.5t-22.5 -8.5q-17 0 -26 17q-16 33 -16 64q0 56 49 94q46 36 105 36q75 0 123 -56q42 56 117 56q81 0 125 -63q40 -57 40 -151zM480 104q-52 52 -156 52q-43 0 -82 -10
q-55 -15 -55 -44q1 -22 58 -34q39 -8 79 -8q96 0 156 44z" />
    <glyph glyph-name="F" unicode="F" horiz-adv-x="952" 
d="M907 322q0 -63 -50 -98q-42 -29 -100 -29h-98q7 -58 40.5 -96.5t77.5 -38.5q45 0 84 25q8 6 17 6q12 0 20.5 -10t8.5 -22q0 -15 -14 -24q-54 -35 -116 -35q-74 0 -125 62q-44 55 -53 133h-54q-11 -83 -74.5 -139t-148.5 -56t-148.5 56t-74.5 139h-24q-30 0 -30 30t30 30
h24q11 80 70 135h-93q-30 0 -30 30t30 30h415q58 0 58 68q0 48 -39 77q-12 8 -12 21q0 12 10 21.5t22 9.5q11 0 20 -8q59 -47 59 -121q0 -52 -29 -88q-33 -40 -88 -40h-17q59 -55 70 -135h53q11 195 162 195q62 0 101 -29q46 -34 46 -99zM760 390q-59 0 -86 -49
q-17 -33 -17 -74q0 -11 1 -12h99q43 0 67.5 21t24.5 49q0 26 -22 45q-25 20 -67 20zM484 255q-10 58 -56 96.5t-106 38.5t-106 -38.5t-56 -96.5h324zM484 195h-324q10 -58 56 -96.5t106 -38.5t106 38.5t56 96.5z" />
    <glyph glyph-name="G" unicode="G" horiz-adv-x="906" 
d="M689 390q-30 0 -30 30t30 30q80 0 128 -69q44 -63 44 -153q0 -93 -47 -157q-52 -71 -142 -71q-78 0 -121 66q-34 55 -34 133q0 15 1 29q5 41 5 63q0 99 -70 99t-70 -94q0 -21 5 -68q2 -15 2 -31q0 -80 -40 -135q-46 -62 -129 -62t-133 76q-43 65 -43 149q0 225 124 225
q47 0 75 -31q25 -28 25 -68q0 -43 -28 -73q-30 -33 -83 -33q-30 0 -53 16v-36q0 -67 33.5 -116t82.5 -49q66 0 89 49q15 34 15 113v23.5v23.5q0 87 19 125q29 56 109 56q129 0 129 -165q0 -15 -3 -45t-3 -45q0 -57 26.5 -96t69.5 -39q62 0 97 53q32 46 32 115q0 65 -29 111
q-31 51 -83 51zM169 390q-21 0 -33.5 -14.5t-12.5 -33.5q0 -37 35 -37q25 0 38.5 13.5t13.5 32.5q0 39 -41 39z" />
    <glyph glyph-name="H" unicode="H" horiz-adv-x="1227" 
d="M1048 241q0 -22 -16 -38t-38 -16q-32 0 -47 28q-22 -26 -22 -61q0 -43 25.5 -68.5t70.5 -25.5q48 0 76 40q26 37 26 93q0 77 -44 133q-49 64 -132 64q-97 0 -115 -5q-61 -16 -57 -85q1 -26 12.5 -75.5t11.5 -80.5q0 -67 -40 -105.5t-103 -38.5q-149 0 -149 148q0 22 3 47
q12 52 12 93q0 102 -69 102q-70 0 -70 -94q0 -21 5 -68q2 -15 2 -31q0 -80 -40 -135q-46 -62 -129 -62t-133 76q-43 65 -43 149q0 225 124 225q47 0 75 -31q25 -28 25 -68q0 -43 -28 -73q-30 -33 -83 -33q-30 0 -53 16v-36q0 -67 33.5 -116t82.5 -49q66 0 89 49
q15 34 15 113v23.5v23.5q0 87 19 125q29 56 109 56q132 0 132 -147q0 -48 -15 -108q-3 -18 -3 -33q0 -102 89 -102q83 0 83 84q0 28 -12 77t-12 79q0 101 73 132q43 18 159 18q110 0 176 -82q59 -74 59 -174q0 -81 -41 -135q-44 -59 -120 -59q-70 0 -113 43.5t-43 110.5
q0 52 32 95q37 50 94 48q23 -1 40 -17t17 -39zM169 390q-21 0 -33.5 -14.5t-12.5 -33.5q0 -37 35 -37q25 0 38.5 13.5t13.5 32.5q0 39 -41 39z" />
    <glyph glyph-name="I" unicode="I" horiz-adv-x="740" 
d="M635 639q60 -47 60 -124q0 -88 -75 -125q72 -56 72 -169q0 -89 -49 -151q-55 -70 -150 -70q-104 0 -159 83q-48 -83 -165 -83q-49 0 -85 28q-39 31 -39 79q0 46 32 73q29 25 71 25q39 0 68 -24t30 -68q0 -21 -5 -39q64 32 64 151q0 102 -60 142q1 -6 1 -13q0 -44 -31 -71
q-29 -23 -70 -23q-40 0 -70 25t-30 71q0 94 117 94q95 0 149 -60.5t54 -164.5q0 -8 -1.5 -24t-1.5 -24q2 -49 39.5 -83.5t91.5 -33.5q65 1 101 49q33 44 33 108q0 69 -36 118q-40 55 -106 55h-26q-30 0 -30 30t30 30q19 0 58 1h59q28 0 43.5 18.5t15.5 45.5q0 50 -40 80
q-12 8 -12 21q0 12 10 21.5t22 9.5q11 0 20 -8zM186 354q0 38 -35 38q-17 0 -31.5 -10.5t-14.5 -25.5q0 -37 40 -37q41 0 41 35zM154 61q33 7 33 43q0 39 -38 42q-43 3 -43 -38q0 -21 13.5 -36t34.5 -11z" />
    <glyph glyph-name="J" unicode="J" horiz-adv-x="650" 
d="M605 195q0 -91 -49 -146q-45 -50 -109 -50q-76 0 -122 69q-46 -69 -128 -69q-62 0 -105 41q-47 46 -47 123q0 72 56 106q42 26 86 21q22 -3 37.5 -18.5t15.5 -37.5t-16 -38t-38 -16q-41 0 -52 39q-29 -18 -29 -56q0 -50 28 -79q24 -25 61 -25q40 0 70.5 30t30.5 82
q0 31 30 31t30 -31q0 -50 29 -81t67 -31q39 0 65 32q29 37 29 104q0 91 -62 142q-66 53 -192 53q-30 0 -30 30t30 30q146 0 230 -67t84 -188z" />
    <glyph glyph-name="K" unicode="K" horiz-adv-x="650" 
d="M605 198q0 -91 -49 -146q-45 -50 -109 -50q-76 0 -122 69q-48 -73 -136 -73q-60 0 -100 38q-44 41 -44 113q0 62 42 97q39 33 103 34q22 0 38 -16t16 -38t-16 -38t-38 -16q-39 0 -51 37q-34 -20 -34 -60q0 -45 24 -69t58 -24q42 0 73 31q35 33 35 87q0 31 30 31t30 -31
q0 -50 29 -81t67 -31q39 0 65 32q29 37 29 104q0 85 -46.5 140t-121.5 64q-26 -86 -119 -86q-62 0 -103 41q-44 45 -24 109q7 21 28 21q31 0 31 -29q0 -5 -2 -14t-2 -14q0 -24 21 -39t48 -15q28 0 47 15t19 42q0 12 9 21t21 9q112 0 183 -74t71 -191z" />
    <glyph glyph-name="L" unicode="L" horiz-adv-x="650" 
d="M605 196q0 -91 -49 -146q-45 -50 -109 -50q-76 0 -122 69q-46 -69 -132 -69q-60 0 -102 38q-46 42 -46 114q0 73 60 104q42 21 86 16q21 -3 36.5 -18.5t15.5 -37.5t-16 -38t-38 -16q-44 0 -53 42q-31 -15 -31 -52q0 -44 25 -68.5t61 -24.5q41 0 72.5 30.5t31.5 82.5
q0 31 30 31t30 -31q0 -50 29 -81t67 -31q39 0 65 32q29 37 29 104q0 123 -25 171q-22 40 -75 42q-90 3 -90 -74q0 -31 -30 -31t-30 31q0 81 -100 76q-48 -3 -67 -16q-23 -17 -23 -61q0 -30 -30 -30t-30 30q0 68 48 106q42 34 106 34q82 0 126 -50q41 48 122 45
q89 -3 126 -75q32 -63 32 -198z" />
    <glyph glyph-name="M" unicode="M" horiz-adv-x="650" 
d="M605 148q0 -68 -44.5 -107.5t-104.5 -39.5q-86 0 -131 69q-45 -68 -130 -68q-61 0 -104 36q-46 38 -46 100q0 80 58 108q6 3 107 26q57 13 56 56q-2 64 -79 64q-82 0 -82 -69q0 -30 -30 -30t-30 30q0 69 49 103q38 26 93 26q66 0 105 -36q35 -34 35 -82q0 -49 -36 -85
q-40 -40 -109 -45q-44 -3 -58 -14q-19 -13 -19 -52q0 -34 28 -56q25 -20 61 -20q41 0 69 26q32 31 32 85q0 31 30 31t30 -31q0 -53 32 -84q29 -28 70 -28q36 0 62 23t26 64q0 54 -44 61q-25 4 -25 29q0 14 9.5 23.5t25.5 7.5q94 -15 94 -121z" />
    <glyph glyph-name="N" unicode="N" horiz-adv-x="650" 
d="M605 148q0 -68 -44.5 -107.5t-104.5 -39.5q-86 0 -131 69q-45 -68 -130 -68q-61 0 -104 36q-46 38 -46 100q0 80 58 108q6 3 107 26q57 13 56 56q-2 64 -79 64q-82 0 -82 -69q0 -30 -30 -30t-30 30q0 109 112 127q0 21 1 43t9 42q14 36 55 59q35 19 71 21q32 2 32 -30
q0 -28 -28 -30q-23 -1 -45.5 -14t-28.5 -28q-7 -18 -7 -63q53 -8 82 -41t29 -75q0 -49 -36 -85q-40 -40 -109 -45q-44 -3 -58 -14q-19 -13 -19 -52q0 -34 28 -56q25 -20 61 -20q41 0 69 26q32 31 32 85q0 31 30 31t30 -31q0 -53 32 -84q29 -28 70 -28q36 0 62 23t26 64
q0 54 -44 61q-25 4 -25 29q0 14 9.5 23.5t25.5 7.5q94 -15 94 -121z" />
    <glyph glyph-name="O" unicode="O" horiz-adv-x="743" 
d="M600 195q3 -19 3 -37q0 -75 -46 -120q-41 -40 -102 -40q-83 0 -130 70q-45 -68 -130 -68q-61 0 -104 36q-46 38 -46 100q0 80 58 108q6 3 107 26q57 13 56 56q-2 64 -79 64q-82 0 -82 -69q0 -30 -30 -30t-30 30q0 69 49 103q38 26 93 26h33q58 0 58 67q0 26 -13 46
q-15 24 -39 24h-58q-30 0 -30 30t30 30h310q105 0 166 -65q54 -57 54 -139q0 -73 -44 -124q-48 -55 -128 -55q-70 0 -111 33t-40 88q1 59 34 96.5t92 36.5q22 -1 38 -16.5t16 -37.5t-16 -38t-38 -16q-29 0 -45 25q-23 -20 -21 -50q4 -61 91 -61q52 0 84 37q29 34 29 83
q0 58 -39 98q-44 45 -122 45h-157q17 -31 17 -70q0 -67 -46 -104q35 -33 35 -81q0 -49 -36 -85q-40 -40 -109 -45q-44 -3 -58 -14q-19 -13 -19 -52q0 -34 28 -56q25 -20 61 -20q41 0 69 26q32 31 32 85q0 31 30 31t30 -31q0 -53 32 -86q29 -29 68 -29q37 0 61 25
q27 29 27 78q0 13 -2 28q-3 15 6.5 24.5t23.5 9.5q25 0 29 -26z" />
    <glyph glyph-name="P" unicode="P" horiz-adv-x="302" 
d="M472 259h-70q45 -43 45 -103q0 -66 -53.5 -110.5t-125.5 -44.5t-125.5 44.5t-53.5 110.5q0 60 45 103h-62q-30 0 -30 30t30 30h167q-16 15 -16 37q0 20 14 34h-167q-30 0 -30 30t30 30h261v-60h-24q15 -14 15 -34q0 -22 -17 -37h167q30 0 30 -30t-30 -30zM387 156
q0 37 -34 66t-85 29t-85 -29t-34 -66t34 -66t85 -29t85 29t34 66z" />
    <glyph glyph-name="Q" unicode="Q" horiz-adv-x="540" 
d="M470 259h-70q45 -43 45 -103q0 -66 -53.5 -110.5t-125.5 -44.5t-125.5 44.5t-53.5 110.5q0 60 45 103h-62q-30 0 -30 30t30 30h156q28 0 39 3q28 8 43 36q-25 -10 -54 -10q-41 0 -68 20q-30 22 -30 62q0 49 38 75q31 21 75 19q52 -2 83 -43q27 -36 27 -86q0 -43 -24 -76
h115q30 0 30 -30t-30 -30zM308 439q0 26 -46 26t-46 -35q0 -26 47 -26t45 35zM385 156q0 37 -34 66t-85 29t-85 -29t-34 -66t34 -66t85 -29t85 29t34 66z" />
    <glyph glyph-name="R" unicode="R" horiz-adv-x="650" 
d="M605 195q0 -80 -35 -133q-40 -62 -114 -62q-96 0 -155 75q-39 -75 -112 -75q-68 0 -108 40q-34 35 -34 87q0 51 33 88q38 40 99 40q53 0 91 -36q-2 69 -27 117q-27 54 -71 54q-67 0 -67 -63q0 -30 -30 -30t-30 30q0 56 38 90q35 33 89 33q73 0 118 -76q40 -69 40 -164
q0 -34 -5 -65q28 -41 51 -59q34 -26 80 -26q40 0 64.5 35.5t24.5 99.5q0 195 -120 195q-30 0 -30 30t30 30q89 0 136 -74q44 -67 44 -181zM261 134q-41 61 -82 61q-33 0 -53 -20.5t-20 -47.5q0 -28 20 -46q23 -21 63 -21q51 0 72 74z" />
    <glyph glyph-name="S" unicode="S" horiz-adv-x="405" 
d="M605 195q0 -80 -35 -133q-40 -62 -114 -62q-96 0 -155 75q-39 -75 -112 -75q-68 0 -108 40q-34 35 -34 87q0 51 33 88q38 40 99 40q53 0 91 -36q-2 69 -27 117q-27 54 -71 54q-67 0 -67 -63q0 -30 -30 -30t-30 30q0 56 38 90q35 33 89 33q73 0 118 -76q40 -69 40 -164
q0 -34 -5 -65q28 -41 51 -59q34 -26 80 -26q40 0 64.5 35.5t24.5 99.5q0 195 -120 195h-52q-30 0 -30 30t30 30h167v-46q65 -67 65 -209zM261 134q-41 61 -82 61q-33 0 -53 -20.5t-20 -47.5q0 -28 20 -46q23 -21 63 -21q51 0 72 74z" />
    <glyph glyph-name="T" unicode="T" horiz-adv-x="673" 
d="M562 273q-31 -36 -83 -36q-45 0 -80 30t-35 78t24 79q28 38 85 38q71 0 115 -74q40 -68 40 -163q0 -93 -39 -155q-45 -70 -123 -70q-106 0 -165 75q-39 -75 -112 -75q-68 0 -108 40q-34 35 -34 87q0 51 33 88q38 40 99 40q53 0 91 -36q-2 69 -27 117q-27 54 -71 54
q-67 0 -67 -63q0 -30 -30 -30t-30 30q0 56 38 90q35 33 89 33q73 0 118 -76q40 -69 40 -164q0 -34 -5 -65q57 -85 141 -85q99 0 99 157q0 28 -3 56zM531 346q0 56 -58 56q-49 0 -49 -57q0 -21 17.5 -37.5t39.5 -16.5q50 0 50 55zM261 134q-41 61 -82 61q-33 0 -53 -20.5
t-20 -47.5q0 -28 20 -46q23 -21 63 -21q51 0 72 74z" />
    <glyph glyph-name="U" unicode="U" horiz-adv-x="363" 
d="M563 225q0 -105 -47 -207q-8 -18 -26 -18q-31 0 -31 29q0 7 3 13q41 91 41 183q0 86 -61 128q-53 37 -142 37q-195 0 -195 -165q0 -53 11 -95q2 -8 29 -91q1 -5 1 -10q0 -29 -31 -29q-21 0 -28 21q-27 85 -31 99q-11 46 -11 105q0 107 66 165h-36q-30 0 -30 30t30 30h410
v-54q78 -60 78 -171z" />
    <glyph glyph-name="V" unicode="V" horiz-adv-x="608" 
d="M563 225q0 -105 -47 -207q-8 -18 -26 -18q-31 0 -31 29q0 7 3 13q41 91 41 183q0 81 -60 125q-53 40 -138 40q-89 0 -142 -38q-58 -42 -58 -127q0 -53 11 -95q2 -8 29 -91q1 -5 1 -10q0 -29 -31 -29q-21 0 -28 21q-27 85 -31 99q-11 46 -11 105q0 98 55 155
q-25 32 -25 68q0 19 8 39q40 102 161 102q90 0 168 -60q85 -64 106 -165q45 -56 45 -139zM426 428q-32 47 -82 74t-100 27q-80 0 -105 -64q-11 -26 9 -49q64 34 157 34q67 0 121 -22z" />
    <glyph glyph-name="W" unicode="W" horiz-adv-x="441" 
d="M478 390h-402q-30 0 -30 30t30 30h402v-60zM384 332q0 -24 -17 -41t-41 -17t-41 17t-17 41t17 41t41 17t41 -17t17 -41zM626 359q15 -31 15 -58q0 -52 -57 -71q22 -29 22 -70q0 -76 -46 -120q-40 -39 -101 -39q-86 0 -134 69q-47 -70 -126 -70q-62 0 -106 44
q-48 47 -48 121q0 72 56 106q42 26 86 21q22 0 38 -16t16 -38q0 -23 -16 -38.5t-38 -15.5q-40 0 -52 38q-30 -19 -30 -57q0 -50 28 -79q24 -25 61 -25q40 0 70.5 30t30.5 82q0 30 30 30t30 -30q0 -52 33 -84q30 -29 70 -29q37 0 62.5 26t25.5 74q0 55 -84 69q-26 5 -26 30
q0 14 10 23t26 7q57 -10 70 -10q38 0 38 25q0 11 -8 29q-3 7 -3 14q0 12 9.5 20.5t21.5 8.5q18 0 26 -17zM373 -66q1 -5 1 -10q0 -15 -12.5 -26.5t-33.5 -11.5q-48 0 -48 37q0 7 3 14q1 2 30 87q2 7 14 6t14 -8q10 -26 32 -88z" />
    <glyph glyph-name="X" unicode="X" horiz-adv-x="686" 
d="M428 354q-14 -44 -56 -70q-36 -22 -77 -22q-30 0 -30 30t30 30q47 0 68 36q-25 -10 -54 -10q-41 0 -68 20q-30 22 -30 62q0 49 38 75q31 21 75 19q52 -2 83 -43q27 -36 27 -85q0 -23 -6 -42zM626 359q15 -31 15 -58q0 -52 -57 -71q22 -29 22 -70q0 -76 -46 -120
q-40 -39 -101 -39q-86 0 -134 69q-47 -70 -126 -70q-62 0 -106 44q-48 47 -48 121q0 72 56 106q42 26 86 21q22 0 38 -16t16 -38q0 -23 -16 -38.5t-38 -15.5q-40 0 -52 38q-30 -19 -30 -57q0 -50 28 -79q24 -25 61 -25q40 0 70.5 30t30.5 82q0 30 30 30t30 -30q0 -52 33 -84
q30 -29 70 -29q37 0 62.5 26t25.5 74q0 55 -84 69q-26 5 -26 30q0 14 10 23t26 7q57 -10 70 -10q38 0 38 25q0 11 -8 29q-3 7 -3 14q0 12 9.5 20.5t21.5 8.5q18 0 26 -17zM373 -66q1 -5 1 -10q0 -15 -12.5 -26.5t-33.5 -11.5q-48 0 -48 37q0 7 3 14q1 2 30 87q2 7 14 6
t14 -8q10 -26 32 -88zM363 439q0 26 -46 26t-46 -35q0 -26 47 -26t45 35z" />
    <glyph glyph-name="Y" unicode="Y" horiz-adv-x="652" 
d="M478 245q0 -21 -14.5 -35.5t-35.5 -14.5t-35.5 14.5t-14.5 35.5t14.5 35.5t35.5 14.5t35.5 -14.5t14.5 -35.5zM605 204q2 -18 2 -35q0 -80 -51 -128q-46 -42 -112 -42q-75 0 -119 53q-43 -53 -123 -53q-63 0 -108 35q-49 38 -49 101q0 81 58 108q4 2 107 26q57 13 56 58
q-2 62 -79 62q-82 0 -82 -69q0 -30 -30 -30t-30 30q0 70 49 103q38 26 93 26q74 0 113 -44q45 44 129 44q53 0 101 -35q53 -39 53 -90q0 -11 -3 -23q-6 -23 -28 -23q-31 0 -31 29q0 5 1 9q5 20 -22 46q-30 27 -71 27q-91 0 -102 -58q0 -48 -36 -84q-40 -40 -109 -45
q-44 -4 -58 -14q-19 -13 -19 -53q0 -35 31 -56q28 -21 66 -21q39 0 64 21q29 23 29 64q0 32 30 32t30 -32q0 -39 27 -62t64 -23q41 0 69 27q32 31 32 85q0 12 -2 25q-2 16 7.5 25.5t22.5 9.5q26 0 30 -26zM266 327z" />
    <glyph glyph-name="Z" unicode="Z" horiz-adv-x="437" 
d="M607 259h-38q37 -44 37 -101q0 -63 -41 -109q-44 -49 -109 -49q-87 0 -131 52q-43 -52 -123 -52q-63 0 -108 34q-49 39 -49 102q0 79 55 107q5 2 102 24q55 13 55 57q0 66 -70 66q-82 0 -82 -69q0 -30 -30 -30t-30 30q0 69 49 103q38 26 93 26q58 0 94 -34.5t36 -91.5
q0 -55 -41 -88q-36 -28 -93 -34q-46 -4 -60 -14q-18 -13 -18 -52q0 -35 31 -57q28 -20 66 -20q39 0 64 20q29 24 29 65q0 31 30 31t30 -31q0 -84 101 -84q43 0 67 28q21 25 21 64q0 42 -24.5 74.5t-64.5 32.5h-48q-30 0 -30 30t30 30h51v71h-53q-30 0 -30 30t30 30h120v-60
h-7v-71h89q30 0 30 -30t-30 -30z" />
    <glyph glyph-name="bracketleft" unicode="[" horiz-adv-x="266" 
d="M218 -102h-170v655h170v-44h-113v-568h113v-43z" />
    <glyph glyph-name="backslash" unicode="\" horiz-adv-x="378" 
d="M330 -101h-55l-227 623h55z" />
    <glyph glyph-name="bracketright" unicode="]" horiz-adv-x="267" 
d="M219 -101h-170v45h113v562h-113v47h170v-654z" />
    <glyph glyph-name="asciicircum" unicode="^" horiz-adv-x="406" 
d="M357 352h-40l-111 191l-113 -191h-43l150 248h9z" />
    <glyph glyph-name="underscore" unicode="_" horiz-adv-x="529" 
d="M481 4h-433v64h433v-64z" />
    <glyph glyph-name="grave" unicode="`" horiz-adv-x="236" 
d="M188 642l-30 -23l-16 -15q-50 -47 -50 -77v-8l34 5q60 0 60 -57q0 -50 -68 -50q-70 0 -70 93q0 47 42 94q35 39 84 62z" />
    <glyph glyph-name="a" unicode="a" horiz-adv-x="667" 
d="M605 148q0 -68 -44.5 -107.5t-104.5 -39.5q-86 0 -131 69q-45 -68 -130 -68q-61 0 -104 36q-46 38 -46 100q0 80 58 108q6 3 107 26q57 13 56 56q-2 64 -79 64q-82 0 -82 -69q0 -30 -30 -30t-30 30q0 69 49 103q38 26 93 26q66 0 105 -36q35 -34 35 -82q0 -49 -36 -85
q-40 -40 -109 -45q-44 -3 -58 -14q-19 -13 -19 -52q0 -34 28 -56q25 -20 61 -20q41 0 69 26q32 31 32 85q0 31 30 31t30 -31q0 -53 32 -84q29 -28 70 -28q36 0 62 23t26 64q0 62 -47 62h-96q-30 0 -30 30t30 30h42q-9 9 -9 22q0 30 30 30q47 0 68 36q-25 -10 -54 -10
q-41 0 -68 20q-30 22 -30 62q0 49 38 75q31 21 75 19q52 -2 83 -43q27 -36 27 -86q0 -22 -6 -41q-20 -61 -86 -84h80q30 0 30 -30q0 -29 -29 -30q12 -26 12 -62zM533 439q0 26 -46 26t-46 -35q0 -26 47 -26t45 35z" />
    <glyph glyph-name="b" unicode="b" horiz-adv-x="425" 
d="M625 186q0 -86 -52 -138q-47 -49 -113 -49q-80 0 -125 69q-46 -69 -125 -69q-66 0 -113 49q-52 52 -52 138q0 264 153 264q57 0 85 -38q24 -31 24 -79t-35 -78t-80 -30q-52 0 -83 36q-4 -33 -4 -75q0 -61 32 -96q29 -31 71 -31q40 0 70 30t30 81q0 32 31 32q30 0 30 -31
q0 -51 30 -83q28 -28 67 -28q41 0 68 31q31 34 31 95q0 84 -27 137q-35 67 -105 67h-26q-30 0 -30 30t30 30h103q18 -16 57 -60q31 -41 44 -80q15 -49 14 -124zM382 -66q2 -5 2 -10q0 -15 -13 -26.5t-34 -11.5q-48 0 -48 37q0 7 3 14q1 2 30 87q2 7 14 6t14 -8
q10 -26 32 -88zM247 333q0 57 -49 57q-58 0 -58 -56q0 -55 50 -55q22 0 39.5 16.5t17.5 37.5z" />
    <glyph glyph-name="c" unicode="c" horiz-adv-x="670" 
d="M625 186q0 -86 -52 -138q-47 -49 -113 -49q-80 0 -125 69q-46 -69 -125 -69q-66 0 -113 49q-52 52 -52 138q0 264 153 264q57 0 85 -38q24 -31 24 -79t-35 -78t-80 -30q-52 0 -83 36q-4 -33 -4 -75q0 -61 32 -96q29 -31 71 -31q40 0 70 30t30 81q0 32 31 32q30 0 30 -31
q0 -51 30 -83q28 -28 67 -28q41 0 68 31q31 34 31 95q0 42 -4 75q-31 -36 -85 -36q-49 0 -84 29q-39 31 -39 79q0 46 29 79q33 38 90 38q153 0 153 -264zM382 -66q2 -5 2 -10q0 -15 -13 -26.5t-34 -11.5q-48 0 -48 37q0 7 3 14q1 2 30 87q2 7 14 6t14 -8q10 -26 32 -88z
M530 334q0 56 -58 56q-49 0 -49 -57q0 -21 17.5 -37.5t39.5 -16.5q50 0 50 55zM247 333q0 57 -49 57q-58 0 -58 -56q0 -55 50 -55q22 0 39.5 16.5t17.5 37.5z" />
    <glyph glyph-name="d" unicode="d" horiz-adv-x="653" 
d="M594 223q16 -37 16 -71q0 -67 -51.5 -110.5t-117.5 -43.5q-73 0 -118 54q-43 -52 -123 -52q-63 0 -108 34q-49 39 -49 102q0 79 57 108q9 4 107 25q57 13 57 54q-1 67 -79 67q-82 0 -82 -69q0 -30 -30 -30t-30 30q0 69 49 103q38 26 93 26q69 0 107 -41q34 -36 32 -88
q-1 -25 20.5 -39.5t55.5 -14.5q77 0 77 62q0 61 -55 61q-30 0 -30 30t30 30q51 0 83 -32t32 -89q0 -59 -45 -93q-38 -29 -92 -29q-69 0 -108 43q-40 -42 -112 -48q-44 -3 -59 -14q-18 -13 -18 -52q0 -35 29 -56t68 -21q38 0 64 20q29 24 29 65q0 31 30 31t30 -31
q0 -42 29 -66q26 -22 65 -22q42 0 73 24.5t31 66.5q0 26 -13 56q-4 6 -4 13q0 26 31 26q21 0 29 -19z" />
    <glyph glyph-name="e" unicode="e" horiz-adv-x="371" 
d="M551 223q20 -40 20 -77q0 -64 -53 -108q-51 -40 -117 -40q-76 0 -121 54q-43 -52 -123 -52q-63 0 -108 34q-49 39 -49 102q0 79 58 108q9 4 107 25q57 13 56 54q-1 67 -79 67q-82 0 -82 -69q0 -30 -30 -30t-30 30q0 69 49 103q38 26 93 26q69 0 107 -41q34 -36 32 -88
q0 -25 21.5 -39.5t54.5 -14.5q77 0 77 62q0 61 -55 61h-49q-30 0 -30 30t30 30h116q11 -16 36 -60q12 -27 12 -61q0 -59 -45 -93q-38 -29 -92 -29q-69 0 -108 43q-40 -42 -112 -48q-44 -3 -58 -14q-19 -13 -19 -52q0 -35 31 -57q28 -20 66 -20q39 0 64 20q29 24 29 65
q0 31 30 31t30 -31q0 -42 27 -64.5t65 -22.5q42 0 72 24q34 26 34 68q0 25 -13 54q-3 7 -3 13q0 26 30 26q20 0 29 -19z" />
    <glyph glyph-name="f" unicode="f" horiz-adv-x="653" 
d="M604 202q4 -19 4 -37q0 -69 -43 -117t-109 -48q-85 0 -130 53q-43 -53 -124 -53q-63 0 -108 34q-49 39 -49 102q0 77 55 106q4 2 102 27q55 13 54 56q-1 65 -69 65q-82 0 -82 -69q0 -30 -30 -30t-30 30q0 69 49 103q38 26 93 26q61 0 96 -40q32 -35 33 -87q1 -26 29 -42
q25 -14 61 -14q58 0 84 31q-20 -7 -46 -7q-44 0 -70 30t-26 70t25 67q28 31 77 29q53 -2 84 -41.5t31 -92.5q0 -58 -37 -98q-41 -46 -115 -48q-78 -2 -126 45q-36 -41 -103 -50q-48 -6 -61 -15q-18 -13 -18 -51q0 -35 31 -57q28 -20 66 -20q39 0 64 20q29 24 29 65
q0 31 30 31t30 -31q0 -84 101 -84q38 0 65 29t27 75q0 13 -2 26q-3 16 6.5 26t23.5 10q24 0 28 -24zM448 427q-41 1 -41 -36q0 -16 10 -28t27 -12q21 0 33.5 12.5t12.5 28.5q0 34 -42 35z" />
    <glyph glyph-name="g" unicode="g" horiz-adv-x="296" 
d="M496 225q0 -93 -66 -159t-159 -66t-159 66t-66 159q0 98 72 165h-43q-30 0 -30 30t30 30h308q13 -20 41 -60q72 -67 72 -165zM436 225q0 68 -48.5 116.5t-116.5 48.5t-116.5 -48.5t-48.5 -116.5t48.5 -116.5t116.5 -48.5t116.5 48.5t48.5 116.5z" />
    <glyph glyph-name="h" unicode="h" horiz-adv-x="322" 
d="M87 0q-81 0 -136 54.5t-55 132.5q0 30 30 30t30 -30q0 -53 37 -90t94 -37q58 0 93 51q32 47 32 114t-33 113q-37 52 -100 52q-30 0 -30 30t30 30q91 0 145 -70q47 -63 47 -155q0 -91 -46 -155q-52 -70 -138 -70zM275 -66q2 -5 2 -10q0 -15 -13 -26.5t-34 -11.5
q-48 0 -48 37q0 7 3 14q1 2 30 87q2 7 14 6t14 -8q10 -26 32 -88z" />
    <glyph glyph-name="i" unicode="i" horiz-adv-x="80" 
d="M214 391q57 -64 57 -166q0 -91 -46 -155q-52 -70 -138 -70q-81 0 -136 54.5t-55 132.5q0 30 30 30t30 -30q0 -53 37 -90t94 -37q58 0 93 52q32 46 32 113t-33 113q-37 52 -100 52h-26q-30 0 -30 30t30 30h123z" />
    <glyph glyph-name="j" unicode="j" horiz-adv-x="540" 
d="M495 225q0 -93 -66 -159t-159 -66t-159 66t-66 159q0 86 57 150q-29 31 -29 80q0 93 90 126q89 33 175 -22q99 -63 117 -206q40 -58 40 -128zM375 424q-24 54 -67 83q-38 26 -82 26q-39 0 -66 -21.5t-27 -56.5q0 -28 14 -41q56 36 123 36q56 0 105 -26zM435 225
q0 68 -48.5 116.5t-116.5 48.5t-116.5 -48.5t-48.5 -116.5t48.5 -116.5t116.5 -48.5t116.5 48.5t48.5 116.5z" />
    <glyph glyph-name="k" unicode="k" horiz-adv-x="879" 
d="M792 162q-9 -12 -23 -12q-12 0 -21.5 9t-9.5 21q0 10 7 18q31 42 31 93q0 42 -23 70.5t-63 28.5q-52 0 -73 -26q-15 -19 -15 -61q0 -11 1 -33.5t1 -33.5q0 -81 -46 -139q17 -35 17 -76q0 -51 -25 -106q-8 -18 -27 -18q-31 0 -31 29q0 7 3 13q20 44 20 81q0 17 -4 33
q-76 -53 -187 -53q-80 0 -122 13q-75 22 -75 87q1 64 73 94q53 22 124 22q127 0 197 -68q23 38 23 88q0 154 -105 154q-37 0 -61 -23t-24 -58q0 -31 -30 -31t-30 31t-28 56t-67 25q-41 0 -67 -21t-26 -52q0 -17 9 -35q4 -7 4 -14q0 -12 -9.5 -20.5t-22.5 -8.5q-17 0 -26 17
q-16 33 -16 64q0 56 49 94q46 36 105 36q75 0 123 -56q42 56 117 56q80 0 124 -61q44 61 127 61q75 0 112 -46q32 -40 32 -104q0 -83 -42 -138zM480 104q-52 52 -156 52q-43 0 -82 -10q-55 -15 -55 -44q1 -22 58 -34q39 -8 79 -8q96 0 156 44z" />
    <glyph glyph-name="l" unicode="l" horiz-adv-x="650" 
d="M605 146q0 -68 -44.5 -107.5t-104.5 -39.5q-86 0 -131 69q-45 -68 -130 -68q-61 0 -104 36q-46 38 -46 100q0 68 39 100q-39 33 -39 83q0 62 42.5 96.5t112.5 34.5q30 0 30 -30t-30 -30q-95 0 -95 -71q0 -22 21 -39.5t53 -17.5t32 -30t-31 -30q-40 0 -56 -11
q-19 -14 -19 -55q0 -34 28 -56q25 -20 61 -20q41 0 69 26q32 31 32 85q0 31 30 31t30 -31q0 -53 32 -84q29 -28 70 -28q36 0 62 23t26 64q0 67 -78 66q-31 -1 -31 30q0 29 31 30q36 1 57 18.5t21 40.5q0 59 -104 59q-30 0 -30 30t30 30q65 0 110 -26q54 -32 54 -93
q0 -52 -42 -86q42 -32 42 -99z" />
    <glyph glyph-name="m" unicode="m" horiz-adv-x="405" 
d="M324 59q-42 -62 -124 -62q-62 0 -107 37q-48 39 -48 102q0 68 39 100q-39 33 -39 83q0 62 42.5 96.5t112.5 34.5q30 0 30 -30t-30 -30q-95 0 -95 -71q0 -22 21 -39.5t53 -17.5t32 -30t-31 -30q-40 0 -56 -11q-19 -14 -19 -55q0 -36 29 -57.5t68 -21.5q38 0 65.5 22.5
t27.5 64.5q0 31 30 31t30 -31q0 -38 26 -62t61 -24q42 0 70 33q33 38 33 107q0 192 -125 192h-26q-30 0 -30 30t30 30h124l36 -60q30 -39 41 -74q11 -41 10 -118q-2 -93 -54 -149q-48 -51 -114 -51q-67 0 -112 54z" />
    <glyph glyph-name="n" unicode="n" horiz-adv-x="650" 
d="M605 186q0 -86 -49 -138q-45 -49 -109 -49q-77 0 -122 69q-45 -68 -130 -68q-61 0 -104 36q-46 38 -46 100q0 68 39 100q-39 33 -39 83q0 62 42.5 96.5t112.5 34.5q30 0 30 -30t-30 -30q-95 0 -95 -71q0 -22 21 -39.5t53 -17.5t32 -30t-31 -30q-40 0 -56 -11
q-19 -14 -19 -55q0 -34 28 -56q25 -20 61 -20q41 0 69 26q32 31 32 85q0 31 30 31t30 -31q0 -51 29 -83q27 -28 65 -28q39 0 67.5 32.5t28.5 93.5q0 42 -4 75q-31 -36 -83 -36q-45 0 -80 30t-35 78t24 79q28 38 85 38q153 0 153 -264zM510 334q0 56 -58 56q-49 0 -49 -57
q0 -21 17.5 -37.5t39.5 -16.5q50 0 50 55z" />
    <glyph glyph-name="o" unicode="o" horiz-adv-x="296" 
d="M496 225q0 -93 -66 -159t-159 -66t-159 66t-66 159q0 98 72 165h-43q-30 0 -30 30t30 30h308q13 -20 41 -60q72 -67 72 -165zM436 225q0 68 -48.5 116.5t-116.5 48.5t-116.5 -48.5t-48.5 -116.5t48.5 -116.5t116.5 -48.5t116.5 48.5t48.5 116.5zM332 250q0 -24 -17 -41
t-41 -17t-41 17t-17 41t17 41t41 17t41 -17t17 -41z" />
    <glyph glyph-name="p" unicode="p" horiz-adv-x="540" 
d="M495 225q0 -93 -66 -159t-159 -66t-159 66t-66 159q0 86 57 150q-29 31 -29 80q0 93 90 126q89 33 175 -22q99 -63 117 -206q40 -58 40 -128zM375 424q-24 54 -67 83q-38 26 -82 26q-39 0 -66 -21.5t-27 -56.5q0 -28 14 -41q56 36 123 36q56 0 105 -26zM435 225
q0 68 -48.5 116.5t-116.5 48.5t-116.5 -48.5t-48.5 -116.5t48.5 -116.5t116.5 -48.5t116.5 48.5t48.5 116.5zM331 253q0 -24 -17 -41t-41 -17t-41 17t-17 41t17 41t41 17t41 -17t17 -41z" />
    <glyph glyph-name="q" unicode="q" horiz-adv-x="407" 
d="M607 198q3 -91 -47 -148q-45 -52 -110 -52q-76 0 -123 70q-46 -69 -125 -69q-63 0 -107 46q-48 51 -48 137q0 133 97 208h-69q-30 0 -30 30t30 30h422v-55q29 -26 46 -62q61 -33 64 -135zM493 289q-6 1 -12 1q-47 0 -49 -51q-1 -22 32 -22q34 0 34 39q0 14 -5 33z
M547 211q-22 -56 -82 -56q-38 0 -66 24t-27 62q2 45 28 75q24 27 62 33q-43 41 -135 41q-94 0 -157 -56t-63 -152q0 -60 29 -93q25 -30 63 -30q39 0 68.5 30.5t29.5 81.5q0 31 30 31t30 -31q0 -51 29 -83q26 -28 63 -28q43 0 71 37q32 42 27 114z" />
    <glyph glyph-name="r" unicode="r" horiz-adv-x="650" 
d="M605 199q3 -91 -47 -148q-45 -52 -110 -52q-76 0 -123 70q-46 -69 -125 -69q-63 0 -107 46q-48 51 -48 137q0 125 87 200q-27 33 -27 69q0 20 8 40q41 98 164 98q121 0 183 -71q51 -57 81 -185q61 -37 64 -135zM446 429q-49 94 -139 100q-115 8 -138 -59q-3 -9 -3 -17
q0 -20 16 -36q65 34 143 34q70 0 121 -22zM491 290q-6 1 -12 1q-47 0 -49 -51q0 -10 9 -17t21 -7q33 0 33 47q0 12 -2 27zM545 212q-22 -56 -82 -56q-38 0 -66 24t-27 62q2 45 28 75q24 27 62 33q-43 41 -135 41q-95 0 -156 -55q-64 -58 -64 -153q0 -60 29 -93
q25 -30 64 -30q38 0 67.5 30.5t29.5 81.5q0 31 30 31t30 -31q0 -50 30 -81t69 -31q41 0 67 36q29 41 24 116z" />
    <glyph glyph-name="s" unicode="s" 
d="M-36 -66q1 -5 1 -10q0 -15 -12.5 -26.5t-33.5 -11.5q-48 0 -48 37q0 7 3 14q1 2 30 87q2 7 14 6t14 -8q10 -26 32 -88z" />
    <glyph glyph-name="t" unicode="t" horiz-adv-x="704" 
d="M656 267q3 -22 3 -44q0 -89 -44 -153q-49 -70 -130 -70q-71 0 -113.5 39t-42.5 105q0 50 34 91q39 46 96 44q25 -1 42 -16.5t17 -41.5q0 -22 -16 -38t-38 -16q-34 0 -49 36q-26 -21 -26 -59q0 -84 96 -84q53 0 83 48q28 43 28 107q0 22 -4 44q-11 63 -54 99
q-37 31 -85 31q-41 0 -68 -23q-30 -25 -30 -67q0 -31 -30 -31t-30 31q0 45 -30 70q-27 22 -66 22q-38 0 -66 -21t-28 -56q0 -64 75 -66q31 -1 31 -30q0 -30 -32 -30t-53 -17.5t-21 -39.5q0 -71 95 -71q30 0 30 -30t-30 -30q-70 0 -112.5 34.5t-42.5 96.5q0 50 39 83
q-39 32 -39 100q0 62 46 100q43 36 104 36q85 0 130 -68q45 68 130 68q70 0 127 -48q61 -51 74 -135zM592 259z" />
    <glyph glyph-name="u" unicode="u" horiz-adv-x="471" 
d="M671 223q0 -89 -44 -153q-49 -70 -130 -70q-71 0 -113.5 39t-42.5 105q0 50 34 91q39 46 96 44q25 -1 42 -16.5t17 -41.5q0 -22 -16 -38t-38 -16q-34 0 -49 36q-26 -21 -26 -59q0 -84 96 -84q53 0 83 48q28 43 28 107q0 22 -4 44q-11 63 -54 99q-37 31 -85 31
q-41 0 -68 -23q-30 -25 -30 -67q0 -31 -30 -31t-30 31q0 45 -30 70q-27 22 -66 22q-38 0 -66 -21t-28 -56q0 -64 75 -66q31 -1 31 -30q0 -30 -32 -30t-53 -17.5t-21 -39.5q0 -71 95 -71q30 0 30 -30t-30 -30q-70 0 -112.5 34.5t-42.5 96.5q0 50 39 83q-39 32 -39 100
q0 43 24 76h-6q-30 0 -30 30t30 30h470l52 -51q74 -65 74 -176zM342 390h-10q2 -4 5 -8q3 4 5 8zM604 259z" />
    <glyph glyph-name="v" unicode="v" horiz-adv-x="363" 
d="M563 175q0 -94 -85 -140q-64 -35 -153 -35q-114 0 -192 59q-88 66 -88 183q0 30 30 30t30 -30q0 -86 64 -136q61 -46 156 -46q76 0 124 27q54 31 54 88q0 55 -35 84q-13 -42 -47.5 -69t-79.5 -27q-41 0 -77 21q-47 27 -47 76q0 89 141 89q21 0 43 -3q-28 44 -76 44h-250
q-30 0 -30 30t30 30h371q-9 -35 -3 -60q22 -29 29 -63q91 -44 91 -152zM412 284q-20 4 -54 4q-81 0 -81 -28q0 -13 18.5 -25t45.5 -12t46.5 17.5t24.5 43.5z" />
    <glyph glyph-name="w" unicode="w" horiz-adv-x="600" 
d="M555 175q0 -94 -85 -140q-64 -35 -153 -35q-115 0 -190 56q-88 65 -82 185q2 28 30 28q32 0 30 -32q-4 -86 58 -133q57 -44 154 -44q76 0 124 27q54 31 54 88q0 49 -28 74q-39 -95 -132 -95q-40 0 -76 21q-48 27 -48 76q0 89 143 89q38 0 72 -7q3 43 -9 82
q-36 -45 -100 -45q-54 0 -86 29t-32 67q0 36 29 61q32 29 90 32q78 4 125 -63q43 -60 43 -147q0 -19 -3 -37q72 -42 72 -137zM321 499q-62 -3 -62 -34q0 -14 16.5 -24.5t42.5 -10.5q25 0 41.5 12.5t16.5 27.5q0 32 -55 29zM413 275q-22 4 -59 4q-83 0 -83 -28q0 -13 19 -25
t45 -12q54 0 78 61z" />
    <glyph glyph-name="x" unicode="x" horiz-adv-x="405" 
d="M605 195q0 -91 -49 -146q-45 -50 -108 -50q-77 0 -123 70q-47 -70 -126 -70q-63 0 -106 46q-48 51 -48 137q0 133 97 208h-67q-30 0 -30 30t30 30h392v-33q138 -70 138 -222zM370 -66q2 -5 2 -10q0 -15 -13 -26.5t-34 -11.5q-48 0 -48 37q0 7 3 14q1 2 30 87q3 7 14 6
q12 -1 14 -8q11 -27 32 -88zM545 195q0 87 -63.5 141t-155.5 54q-96 0 -157 -55q-64 -58 -64 -153q0 -60 28 -93q25 -29 63 -29q39 0 69 30.5t30 80.5q0 31 30 31t30 -31q0 -50 29 -81t67 -31q39 0 65 32q29 37 29 104zM385 287q0 -24 -17 -41t-41 -17t-41 17t-17 41
q0 25 17 42t41 17t41 -17t17 -42z" />
    <glyph glyph-name="y" unicode="y" horiz-adv-x="650" 
d="M605 195q0 -91 -49 -146q-45 -50 -109 -50q-76 0 -122 69q-46 -69 -125 -69q-63 0 -107 46q-48 51 -48 137q0 125 87 200q-27 32 -27 69q0 20 8 40q40 101 158 101q92 0 170 -62q85 -68 104 -173q60 -67 60 -162zM371 -66q2 -5 2 -10q0 -15 -13 -26.5t-34 -11.5
q-48 0 -48 37q0 7 3 14q1 2 30 87q2 7 14 6t14 -8q10 -26 32 -88zM458 421q-31 52 -83 81.5t-103 29.5q-78 0 -103 -63q-4 -9 -4 -17q0 -19 17 -36q65 34 143 34q71 0 133 -29zM545 195q0 87 -64 141t-156 54q-95 0 -156 -55q-64 -58 -64 -153q0 -60 29 -93q25 -30 64 -30
q38 0 67.5 30.5t29.5 81.5q0 31 30 31t30 -31q0 -50 29 -81t67 -31q39 0 65 32q29 37 29 104zM385 287q0 -24 -17 -41t-41 -17t-41 17t-17 41q0 25 17 42t41 17t41 -17t17 -42z" />
    <glyph glyph-name="z" unicode="z" horiz-adv-x="405" 
d="M605 195q0 -91 -49 -146q-45 -50 -108 -50q-77 0 -123 70q-47 -70 -126 -70q-63 0 -106 46q-48 51 -48 137q0 133 97 208h-67q-30 0 -30 30t30 30h392v-33q138 -70 138 -222zM545 195q0 87 -63.5 141t-155.5 54q-96 0 -157 -55q-64 -58 -64 -153q0 -60 28 -93
q25 -29 63 -29q39 0 69 30.5t30 80.5q0 31 30 31t30 -31q0 -50 29 -81t67 -31q39 0 65 32q29 37 29 104z" />
    <glyph glyph-name="braceleft" unicode="{" horiz-adv-x="333" 
d="M277 -105q-42 5 -96 40q-61 41 -58 78l2 25l9 48l6 25q2 5 2 23q0 34 -29.5 58t-64.5 24v17q37 4 64 24q30 29 30 59q0 21 -9.5 62t-9.5 63q0 54 41.5 97.5t112.5 53.5v-14q-93 -24 -93 -92q0 -21 9 -62.5t9 -62.5q0 -93 -119 -135q119 -40 119 -136q0 -21 -9 -60l-6 -26
l-3 -6q0 -70 93 -89v-14z" />
    <glyph glyph-name="bar" unicode="|" horiz-adv-x="183" 
d="M104 -12l-56 45v473l56 -67v-451z" />
    <glyph glyph-name="braceright" unicode="}" horiz-adv-x="328" 
d="M277 250q-37 -4 -64 -24q-30 -29 -30 -59q0 -21 9.5 -62t9.5 -63q0 -54 -41.5 -97.5t-112.5 -53.5v14q93 24 93 92q0 21 -9 62.5t-9 62.5q0 93 119 135q-126 42 -119 136l2 26l6 33l6 25l4 8q0 70 -93 89v14q40 -6 95 -42q62 -41 59 -76l-2 -24l-9 -49l-7 -25l-1 -23
q-1 -34 30 -58l31 -19q11 -5 33 -5v-17z" />
    <glyph glyph-name="asciitilde" unicode="~" horiz-adv-x="494" 
d="M454 366q0 -32 -6 -48l-16 -42q-25 -49 -72 -49q-21 0 -37 8l-33 17l-71 36q-65 33 -84 33q-56 0 -71 -93h-16q0 48 19 89q23 50 70 50q44 0 138 -57q61 -37 92 -37q61 0 70 93h17z" />
    <glyph glyph-name="quotedblbase" unicode="&#x201e;" horiz-adv-x="406" 
d="M353 98q0 -23 -9 -37l-26 -27q-31 -32 -108 -32h-44l-57 3l-58 7v47q80 -10 114 -9l46 2q81 12 81 44q0 20 -17 32q-60 27 -88 36l-56 17q-44 13 -59 32q-24 30 -24 59q0 39 40 70q37 29 134 29q49 0 103 -13l15 -7v-31l-7 -6l-72 10l-51 3h-18l-26 -6l-34 -10
q-24 -20 -24 -35q0 -12 15 -21l10 -9l28 -12l20 -7l24 -8l16 -4q21 -5 85 -36q20 -14 34 -33q13 -22 13 -48z" />
    <glyph glyph-name="ellipsis" unicode="&#x2026;" horiz-adv-x="500" 
d="M409 -298h-361v62h361v-62zM409 -298v62h-361v-62h361z" />
    <glyph glyph-name="dagger" unicode="&#x2020;" horiz-adv-x="181" 
d="M110 194h-62v338h62v-338z" />
    <glyph glyph-name="daggerdbl" unicode="&#x2021;" horiz-adv-x="348" 
d="M276 198h-62v340h62v-340zM110 198h-62v340h62v-340z" />
    <glyph glyph-name="perthousand" unicode="&#x2030;" horiz-adv-x="470" 
d="M392 325q0 -77 -15 -123q-33 -102 -156 -102q-124 0 -157 96q-16 31 -16 129v73h58v-72q0 -72 10 -99q24 -66 100 -66q73 0 100 48q19 36 19 117v72h57v-73z" />
    <glyph glyph-name="Scaron" unicode="&#x160;" horiz-adv-x="471" 
d="M406 299h-358v65h358v-65z" />
    <glyph glyph-name="guilsinglleft" unicode="&#x2039;" horiz-adv-x="205" 
d="M169 355q0 -23 -19.5 -41t-42.5 -18t-41 18t-18 41q0 26 16.5 42t42.5 16q24 0 43 -17t19 -41z" />
    <glyph glyph-name="OE" unicode="&#x152;" horiz-adv-x="226" 
d="M169 -252q0 -23 -19.5 -41t-42.5 -18q-24 0 -41.5 17.5t-17.5 41.5q0 26 16.5 42t42.5 16q25 0 43.5 -16.5t18.5 -41.5z" />
    <glyph glyph-name="quoteleft" unicode="&#x2018;" horiz-adv-x="224" 
d="M182 544q0 -27 -19 -46t-45 -19q-27 0 -46 19t-19 46v0q0 57 34 89q31 30 79 30q10 0 10 -10t-10 -10q-55 0 -80 -43q15 8 32 8q26 0 45 -19t19 -45z" />
    <glyph glyph-name="quoteright" unicode="&#x2019;" horiz-adv-x="224" 
d="M182 598q0 -57 -34 -90q-31 -29 -79 -29q-10 0 -10 10t10 10q55 0 80 43q-15 -8 -31 -8q-27 0 -46 18.5t-19 45.5t19 46t46 19q26 0 45 -19t19 -46v0z" />
    <glyph glyph-name="quotedblleft" unicode="&#x201c;" horiz-adv-x="398" 
d="M342 544q0 -27 -19 -46t-45 -19q-27 0 -46 19t-19 46v0q0 57 34 89q31 30 79 30q10 0 10 -10t-10 -10q-55 0 -80 -43q15 8 32 8q26 0 45 -19t19 -45zM182 544q0 -27 -19 -46t-45 -19q-27 0 -46 19t-19 46v0q0 57 34 89q31 30 79 30q10 0 10 -10t-10 -10q-55 0 -80 -43
q15 8 32 8q26 0 45 -19t19 -45z" />
    <glyph glyph-name="quotedblright" unicode="&#x201d;" horiz-adv-x="385" 
d="M342 598q0 -57 -34 -90q-31 -29 -79 -29q-10 0 -10 10t10 10q55 0 80 43q-15 -8 -31 -8q-27 0 -46 18.5t-19 45.5t19 46t46 19q26 0 45 -19t19 -46v0zM182 598q0 -57 -34 -90q-31 -29 -79 -29q-10 0 -10 10t10 10q55 0 80 43q-15 -8 -31 -8q-27 0 -46 18.5t-19 45.5
t19 46t46 19q26 0 45 -19t19 -46v0z" />
    <glyph glyph-name="nonbreakingspace" unicode="&#xa0;" horiz-adv-x="500" 
 />
    <glyph glyph-name="cent" unicode="&#xa2;" horiz-adv-x="650" 
d="M605 195q0 -91 -49 -146q-45 -50 -109 -50q-76 0 -122 69q-46 -69 -125 -69q-63 0 -107 46q-48 51 -48 137q0 125 87 200q-27 32 -27 69q0 20 8 40q40 101 158 101q92 0 170 -62q85 -68 104 -173q60 -67 60 -162zM458 421q-31 52 -83 81.5t-103 29.5q-78 0 -103 -63
q-4 -9 -4 -17q0 -19 17 -36q65 34 143 34q71 0 133 -29zM545 195q0 87 -64 141t-156 54q-95 0 -156 -55q-64 -58 -64 -153q0 -60 29 -93q25 -30 64 -30q38 0 67.5 30.5t29.5 81.5q0 31 30 31t30 -31q0 -50 29 -81t67 -31q39 0 65 32q29 37 29 104z" />
    <glyph glyph-name="sterling" unicode="&#xa3;" horiz-adv-x="365" 
d="M565 203q0 -74 -28 -128q-38 -75 -119 -75q-70 0 -106 60q-22 56 -45 113q-27 60 -76 60q-38 0 -62 -19t-24 -50q0 -42 7 -61q10 -24 41 -47q12 -9 12 -23q0 -13 -10 -23.5t-24 -10.5q-9 0 -17 5q-46 27 -60 67q-9 28 -9 93q0 62 47 98q42 31 99 31q74 0 112 -60
q0 -1 47 -113q25 -60 68 -60t66 43q21 38 21 100q0 76 -55 131.5t-130 55.5h-245q-30 0 -30 30t30 30h367l34 -56q89 -73 89 -191z" />
    <glyph glyph-name="currency" unicode="&#xa4;" horiz-adv-x="606" 
d="M561 203q0 -74 -27 -128q-39 -75 -120 -75q-69 0 -107 58q-25 53 -49 106q-30 58 -80 58q-74 0 -74 -73q0 -28 13 -55.5t29 -37t16 -25.5q0 -12 -9 -21.5t-21 -9.5q-8 0 -15 4q-33 19 -52.5 59t-19.5 85q0 57 31 93q36 41 102 41q74 0 114 -58q25 -53 51 -106
q27 -58 71 -58q43 0 67 43q20 38 20 100q0 176 -119 244q3 -57 -39 -88q-38 -28 -96 -28q-46 0 -84 26q-44 31 -44 81q0 53 50 80q37 20 85 20q146 0 230 -99q77 -91 77 -236zM254 478q-35 0 -55 -12t-20 -28q0 -18 19.5 -32.5t48.5 -14.5q35 0 56 14.5t21 33.5q0 39 -70 39
z" />
    <glyph glyph-name="yen" unicode="&#xa5;" horiz-adv-x="405" 
d="M478 390h-402q-30 0 -30 30t30 30h402v-60zM384 332q0 -24 -17 -41t-41 -17t-41 17t-17 41t17 41t41 17t41 -17t17 -41zM605 187q0 -87 -48 -139q-44 -47 -107 -47q-79 0 -125 69q-46 -69 -128 -69q-62 0 -105 41q-47 46 -47 123q0 72 56 106q42 26 86 21q22 0 38 -16
t16 -38q0 -23 -16 -38.5t-38 -15.5q-40 0 -52 38q-30 -19 -30 -57q0 -50 28 -79q24 -25 61 -25q40 0 70.5 30t30.5 82q0 31 30 31t30 -31q0 -51 31 -82q28 -30 66 -30q39 0 64 30q29 34 29 96q0 35 -16 68t-45 48q-17 9 -17 28q0 29 27 29q15 0 33 -13q78 -57 78 -160z" />
    <glyph glyph-name="brokenbar" unicode="&#xa6;" horiz-adv-x="650" 
d="M428 354q-14 -44 -56 -70q-36 -22 -77 -22q-30 0 -30 30t30 30q47 0 68 36q-25 -10 -54 -10q-41 0 -68 20q-30 22 -30 62q0 49 38 75q31 21 75 19q52 -2 83 -43q27 -36 27 -85q0 -23 -6 -42zM605 187q0 -87 -48 -139q-44 -47 -107 -47q-79 0 -125 69q-46 -69 -128 -69
q-62 0 -105 41q-47 46 -47 123q0 72 56 106q42 26 86 21q22 0 38 -16t16 -38q0 -23 -16 -38.5t-38 -15.5q-40 0 -52 38q-30 -19 -30 -57q0 -50 28 -79q24 -25 61 -25q40 0 70.5 30t30.5 82q0 31 30 31t30 -31q0 -51 31 -82q28 -30 66 -30q39 0 64 30q29 34 29 96
q0 35 -16 68t-45 48q-17 9 -17 28q0 29 27 29q15 0 33 -13q78 -57 78 -160zM360 429q1 36 -46 36q-43 0 -43 -35q0 -24 41 -24q48 0 48 23z" />
    <glyph glyph-name="section" unicode="&#xa7;" horiz-adv-x="651" 
d="M606 198q0 -93 -53 -149q-48 -51 -114 -51q-69 0 -113 54q-44 -52 -123 -52q-63 0 -108 34q-49 39 -49 102q0 80 58 108q5 3 107 26q57 13 56 56q-3 64 -79 64q-82 0 -82 -69q0 -30 -30 -30t-30 30q0 69 49 103q38 26 93 26q65 0 104 -36q35 -34 35 -82q0 -49 -36 -85
q-39 -40 -108 -45q-45 -3 -59 -14q-18 -13 -18 -52q0 -35 29 -56t68 -21q38 0 64 20q29 24 29 65q0 31 30 31t30 -31q0 -38 25.5 -62t60.5 -24q42 0 71 33q33 38 33 107q0 85 -21 129q-29 63 -104 63q-31 0 -31 30t31 30q185 0 185 -252z" />
    <glyph glyph-name="dieresis" unicode="&#xa8;" horiz-adv-x="405" 
d="M605 198q-2 -93 -54 -149q-48 -51 -114 -51q-67 0 -112 54q-43 -52 -123 -52q-63 0 -108 34q-49 39 -49 102q0 80 58 108q6 3 107 26q57 13 56 56q-2 64 -79 64q-82 0 -82 -69q0 -30 -30 -30t-30 30q0 69 49 103q38 26 93 26q66 0 105 -36q35 -34 35 -82q0 -49 -36 -85
q-40 -40 -109 -45q-44 -3 -58 -14q-19 -13 -19 -52q0 -35 31 -57q28 -20 66 -20q39 0 64 20q29 24 29 65q0 31 30 31t30 -31q0 -38 26 -62t61 -24q42 0 70 33q33 38 33 107q0 192 -125 192h-26q-30 0 -30 30t30 30h121l39 -60q30 -39 41 -74q11 -41 10 -118z" />
    <glyph glyph-name="copyright" unicode="&#xa9;" horiz-adv-x="650" 
d="M605 198q0 -93 -52 -149q-48 -51 -115 -51q-68 0 -113 54q-43 -52 -123 -52q-63 0 -108 34q-49 39 -49 102q0 80 50 107q45 13 91 25q50 14 50 61q0 61 -59 61q-72 0 -72 -69q0 -30 -30 -30t-30 30q0 69 45 103q34 26 87 26q59 0 94 -36q31 -33 31 -82q0 -47 -29 -82
q-33 -40 -91 -48q-46 -7 -58 -15q-19 -13 -19 -51q0 -35 31 -57q28 -20 66 -20q39 0 64 20q29 24 29 65q0 31 30 31t30 -31q0 -38 26 -62t61 -24q42 0 70 33q33 38 33 107q0 42 -4 75q-31 -36 -83 -36q-45 0 -80 30t-35 78t24 79q28 38 85 38q153 0 153 -264zM510 346
q0 56 -58 56q-49 0 -49 -57q0 -21 17.5 -37.5t39.5 -16.5q50 0 50 55z" />
    <glyph glyph-name="ordfeminine" unicode="&#xaa;" horiz-adv-x="405" 
d="M605 195q0 -91 -49 -146q-45 -50 -109 -50q-76 0 -122 69q-46 -69 -128 -69q-62 0 -105 41q-47 46 -47 123q0 72 56 106q43 26 86 21q21 -3 36.5 -18.5t15.5 -37.5t-16 -38t-38 -16q-40 0 -52 39q-28 -19 -28 -56q0 -50 28 -79q24 -25 61 -25q40 0 70.5 30t30.5 82
q0 31 30 31t30 -31q0 -50 29 -81t67 -31q39 0 65 32q29 37 29 104q0 91 -53 143t-140 52h-277q-30 0 -30 30t30 30h422v-40q108 -69 108 -215z" />
    <glyph glyph-name="guillemotleft" unicode="&#xab;" horiz-adv-x="650" 
d="M605 195q0 -72 -31 -125q-40 -70 -118 -70q-84 0 -130 63q-42 -63 -119 -63q-74 0 -116 36q-46 39 -46 115q0 58 42 92q39 30 94 28q23 -1 38.5 -16.5t15.5 -37.5t-16 -38t-38 -16q-39 0 -51 37q-25 -16 -25 -49q0 -91 102 -91q38 0 63 28.5t25 74.5q0 31 30 31t30 -31
q0 -45 28 -74t73 -29q42 0 67 40q22 37 22 95q0 176 -119 244q3 -57 -40 -88q-37 -28 -95 -28q-47 0 -84 26q-44 31 -44 81q0 53 50 80q37 20 85 20q146 0 229 -99q78 -91 78 -236zM366 430q0 40 -68 40q-35 0 -55 -12t-20 -28q0 -18 19.5 -32.5t48.5 -14.5q75 0 75 47z" />
    <glyph glyph-name="logicalnot" unicode="&#xac;" horiz-adv-x="851" 
d="M806 198q0 -88 -48.5 -143t-126.5 -55q-118 0 -169 108q-30 -50 -81 -79t-111 -29q-93 0 -159 66t-66 159t66 159t159 66q91 0 156.5 -63t68.5 -154q2 -73 31 -118q36 -55 105 -55q50 0 82.5 36t32.5 102q0 42 -4 75q-31 -36 -83 -36q-45 0 -80 30t-35 78t24 79
q28 38 85 38q153 0 153 -264zM711 346q0 56 -58 56q-49 0 -49 -57q0 -21 17.5 -37.5t39.5 -16.5q50 0 50 55zM435 225q0 68 -48.5 116.5t-116.5 48.5t-116.5 -48.5t-48.5 -116.5t48.5 -116.5t116.5 -48.5t116.5 48.5t48.5 116.5z" />
    <glyph glyph-name="registered" unicode="&#xae;" horiz-adv-x="650" 
d="M605 225q0 -118 -91 -177q-74 -48 -189 -48q-110 0 -185 47q-95 59 -95 178q0 96 21 147q32 78 115 78q51 0 81 -30t30 -81q0 -45 -34 -77.5t-78 -32.5t-75 25v-29q0 -84 67 -128q58 -37 153 -37q100 0 156 38q64 42 64 127q0 65 -33 113q-35 52 -87 52q-30 0 -30 30
t30 30q86 0 137 -79q43 -65 43 -146zM181 390q-56 0 -56 -49q0 -21 15 -36.5t40 -15.5q23 0 37.5 17t14.5 39q0 45 -51 45z" />
    <glyph glyph-name="degree" unicode="&#xb0;" horiz-adv-x="650" 
d="M605 225q0 -119 -95 -178q-75 -47 -185 -47t-185 47q-95 59 -95 178q0 96 21 147q32 78 115 78q51 0 81 -30t30 -81q0 -45 -34 -77.5t-78 -32.5t-75 25v-29q0 -84 67 -128q58 -37 153 -37t153 37q67 44 67 128v29q-31 -25 -75 -25t-78 32.5t-34 77.5q0 51 30 81t81 30
q83 0 115 -78q21 -51 21 -147zM470 289q25 0 40 15.5t15 36.5q0 49 -56 49q-51 0 -51 -45q0 -22 14.5 -39t37.5 -17zM181 390q-56 0 -56 -49q0 -21 15 -36.5t40 -15.5q23 0 37.5 17t14.5 39q0 45 -51 45z" />
    <glyph glyph-name="plusminus" unicode="&#xb1;" horiz-adv-x="346" 
d="M546 206q0 -105 -80 -160q-67 -46 -171 -46q-97 0 -160 28q-86 40 -86 126q0 65 71 82q65 9 131 18q70 14 70 71q0 24 -22.5 44.5t-51.5 20.5q-41 0 -65 -14q21 -17 21 -43q0 -22 -16 -38t-38 -16q-16 0 -33.5 12t-20.5 28q-3 10 -3 20q0 28 17 51h-34q-30 0 -30 30
t30 30h372l20 -60q79 -68 79 -184zM486 206q0 134 -117 170q12 -24 12 -51q0 -84 -70 -115q-34 -15 -131 -25q-71 -7 -71 -31q0 -94 186 -94q86 0 136 35q55 38 55 111z" />
    <glyph glyph-name="twosuperior" unicode="&#xb2;" horiz-adv-x="577" 
d="M532 206q0 -105 -75 -160q-64 -46 -166 -46q-97 0 -160 28q-86 40 -86 126q0 69 75 85l150 22q90 22 114 103q-41 11 -112 11q-35 0 -77 -21q10 -14 10 -32q0 -22 -16 -38t-38 -16q-23 0 -38.5 15.5t-15.5 38.5q0 47 67 83q57 30 108 30q75 0 122 -12q1 11 1 22
q0 53 -19 90q-25 -55 -95 -55q-39 0 -67 20q-33 24 -33 69t32 69q28 22 68 22q81 0 131 -73q43 -64 43 -142q0 -24 -3 -47q80 -50 80 -192zM281 540q19 0 32.5 11t13.5 24q0 25 -46 25q-40 0 -40 -31q0 -29 40 -29zM472 206q0 90 -34 127q-40 -114 -183 -136q-43 -4 -85 -8
q-65 -10 -65 -35q0 -94 186 -94q181 0 181 146z" />
    <glyph glyph-name="threesuperior" unicode="&#xb3;" horiz-adv-x="509" 
d="M461 178q0 -85 -64 -131q-56 -40 -144 -40t-143 41q-62 45 -62 130t61 137q58 49 144 49q83 0 145.5 -52.5t62.5 -133.5zM447 178q0 77 -60 126q-56 46 -134 46q-80 0 -134 -45q-58 -48 -58 -127q0 -81 57 -122q51 -36 135 -36t135 36q59 41 59 122zM400 117h-47l10 10v4
l-10 23l-4 5h-47l-5 -5l-9 -25l13 -12h-41q24 19 40 66q19 56 30 74l4 -5l47 -116zM250 252l-4 -2l-5 -3l-4 -2l-3 -2v-126h-6l-16 18l-25 30l-39 50l-1 3l-3 2v-93q1 -4 7 -7l7 -3h-40l7 3l7 7v111l-5 5l-14 9l7 1h7q28 0 54 -42q34 -56 42 -61v93l-7 5l-7 4h41zM344 173
q-5 23 -19 51q-19 -41 -19 -51h38z" />
    <glyph glyph-name="acute" unicode="&#xb4;" horiz-adv-x="511" 
d="M461 176q0 -85 -64 -131q-56 -40 -144 -40t-143 41q-62 45 -62 130t61 137q58 49 144 49q83 0 145.5 -52.5t62.5 -133.5zM447 176q0 77 -60 126q-56 46 -134 46q-80 0 -134 -45q-58 -48 -58 -127q0 -81 57 -122q51 -36 135 -36t135 36q59 41 59 122zM400 115h-47l10 10v4
l-10 23l-4 5h-47l-5 -5l-9 -25l13 -12h-41q24 19 40 66q19 56 30 74l4 -5l47 -116zM250 250l-4 -2l-5 -3l-4 -2l-3 -2v-126h-6l-16 18l-25 30l-39 50l-1 3l-3 2v-93q1 -4 7 -7l7 -3h-40l7 3l7 7v111l-5 5l-14 9l7 1h7q28 0 54 -42q34 -56 42 -61v93l-7 5l-7 4h41zM344 171
q-5 23 -19 51q-19 -41 -19 -51h38z" />
    <glyph glyph-name="mu1" unicode="&#xb5;" horiz-adv-x="405" 
d="M478 390h-402q-30 0 -30 30t30 30h402v-60zM384 332q0 -24 -17 -41t-41 -17t-41 17t-17 41t17 41t41 17t41 -17t17 -41zM605 187q0 -83 -44 -135l38 -61q6 -8 6 -17q0 -12 -10 -20.5t-22 -8.5q-15 0 -24 14l-36 56q-30 -14 -63 -14q-79 0 -125 69q-46 -69 -128 -69
q-62 0 -105 41q-47 46 -47 123q0 72 56 106q42 26 86 21q22 0 38 -16t16 -38q0 -23 -16 -38.5t-38 -15.5q-40 0 -52 38q-30 -19 -30 -57q0 -50 28 -79q24 -25 61 -25q40 0 70.5 30t30.5 82q0 31 30 31t30 -31q0 -51 31 -82q28 -30 66 -30q16 0 29 5l-84 136q-6 8 -6 17
q0 12 10 20.5t22 8.5q15 0 24 -14l80 -127q18 32 18 80q0 35 -16 68t-45 48q-17 9 -17 28q0 29 27 29q15 0 33 -13q78 -57 78 -160z" />
    <glyph glyph-name="paragraph" unicode="&#xb6;" horiz-adv-x="650" 
d="M428 354q-14 -44 -56 -70q-36 -22 -77 -22q-30 0 -30 30t30 30q47 0 68 36q-25 -10 -54 -10q-41 0 -68 20q-30 22 -30 62q0 49 38 75q31 21 75 19q52 -2 83 -43q27 -36 27 -85q0 -23 -6 -42zM605 187q0 -83 -44 -135l38 -61q6 -8 6 -17q0 -12 -10 -20.5t-22 -8.5
q-15 0 -24 14l-36 56q-30 -14 -63 -14q-79 0 -125 69q-46 -69 -128 -69q-62 0 -105 41q-47 46 -47 123q0 72 56 106q42 26 86 21q22 0 38 -16t16 -38q0 -23 -16 -38.5t-38 -15.5q-40 0 -52 38q-30 -19 -30 -57q0 -50 28 -79q24 -25 61 -25q40 0 70.5 30t30.5 82q0 31 30 31
t30 -31q0 -51 31 -82q28 -30 66 -30q16 0 29 5l-84 136q-6 8 -6 17q0 12 10 20.5t22 8.5q15 0 24 -14l80 -127q18 32 18 80q0 35 -16 68t-45 48q-17 9 -17 28q0 29 27 29q15 0 33 -13q78 -57 78 -160zM363 439q0 26 -46 26t-46 -35q0 -26 47 -26t45 35z" />
    <glyph glyph-name="periodcentered" unicode="&#xb7;" horiz-adv-x="510" 
d="M461 179q0 -85 -64 -131q-56 -40 -144 -40t-143 41q-62 45 -62 130t61 137q58 49 144 49q83 0 145.5 -52.5t62.5 -133.5zM447 179q0 77 -60 126q-56 46 -134 46q-80 0 -134 -45q-58 -48 -58 -127q0 -81 57 -122q51 -36 135 -36t135 36q59 41 59 122zM400 118h-47l10 10v4
l-10 23l-4 5h-47l-5 -5l-9 -25l13 -12h-41q24 19 40 66q19 56 30 74l4 -5l47 -116zM250 253l-4 -2l-5 -3l-4 -2l-3 -2v-126h-6l-16 18l-25 30l-39 50l-1 3l-3 2v-93q1 -4 7 -7l7 -3h-40l7 3l7 7v111l-5 5l-14 9l7 1h7q28 0 54 -42q34 -56 42 -61v93l-7 5l-7 4h41zM344 174
q-5 23 -19 51q-19 -41 -19 -51h38z" />
    <glyph glyph-name="periodcentered" unicode="&#x2219;" horiz-adv-x="510" 
d="M461 179q0 -85 -64 -131q-56 -40 -144 -40t-143 41q-62 45 -62 130t61 137q58 49 144 49q83 0 145.5 -52.5t62.5 -133.5zM447 179q0 77 -60 126q-56 46 -134 46q-80 0 -134 -45q-58 -48 -58 -127q0 -81 57 -122q51 -36 135 -36t135 36q59 41 59 122zM400 118h-47l10 10v4
l-10 23l-4 5h-47l-5 -5l-9 -25l13 -12h-41q24 19 40 66q19 56 30 74l4 -5l47 -116zM250 253l-4 -2l-5 -3l-4 -2l-3 -2v-126h-6l-16 18l-25 30l-39 50l-1 3l-3 2v-93q1 -4 7 -7l7 -3h-40l7 3l7 7v111l-5 5l-14 9l7 1h7q28 0 54 -42q34 -56 42 -61v93l-7 5l-7 4h41zM344 174
q-5 23 -19 51q-19 -41 -19 -51h38z" />
    <glyph glyph-name="cedilla" unicode="&#xb8;" horiz-adv-x="364" 
d="M478 390h-402q-30 0 -30 30t30 30h402v-60zM384 332q0 -24 -17 -41t-41 -17t-41 17t-17 41t17 41t41 17t41 -17t17 -41zM524 315q40 -43 40 -129q0 -76 -34 -127q-41 -59 -115 -59q-80 0 -117 54q-21 50 -43.5 102.5t-70.5 52.5q-38 0 -59.5 -20.5t-21.5 -53.5
q0 -42 34 -87q6 -9 6 -18q0 -12 -9.5 -21t-21.5 -9q-14 0 -23 12q-44 59 -44 130q0 55 32 88q36 39 107 39q74 0 108 -54q21 -50 42 -101q26 -54 81 -54q40 0 67 43q25 40 25 91t-26 80q-9 9 -9 20q0 12 9.5 21.5t21.5 9.5t21 -10z" />
    <glyph glyph-name="onesuperior" unicode="&#xb9;" horiz-adv-x="609" 
d="M426 374q-14 -44 -55 -70q-37 -22 -77 -22q-30 0 -30 30t30 30q47 0 68 36q-26 -10 -54 -10q-41 0 -68 20q-30 22 -30 62q0 49 37 75q32 21 76 19q52 -2 82 -43q27 -36 27 -85q0 -23 -6 -42zM524 315q40 -43 40 -129q0 -76 -35 -127q-40 -59 -114 -59q-80 0 -117 54
q-21 50 -43.5 102.5t-70.5 52.5q-38 0 -59.5 -20.5t-21.5 -53.5q0 -42 34 -87q6 -9 6 -18q0 -12 -9.5 -21t-21.5 -9q-14 0 -24 12q-43 59 -43 129q0 56 31 89q37 39 108 39q74 0 108 -54q21 -50 42 -101q26 -54 81 -54q40 0 67 43q25 40 25 91t-27 80q-8 9 -8 20
q0 12 9 21.5t22 9.5q12 0 21 -10zM362 459q-1 26 -47 26q-45 0 -45 -35q0 -26 46 -26q47 0 46 35z" />
    <glyph glyph-name="ordmasculine" unicode="&#xba;" horiz-adv-x="405" 
d="M477 390h-139q20 -24 20 -81q0 -30 -30 -30t-30 30q0 81 -37 81h-186q-30 0 -30 30t30 30h402v-60zM605 155q0 -64 -45.5 -109.5t-109.5 -45.5q-78 0 -125 63q-47 -63 -125 -63q-64 0 -109.5 45.5t-45.5 109.5t45.5 109.5t109.5 45.5q78 0 125 -63q47 63 125 63
q64 0 109.5 -45.5t45.5 -109.5zM545 155q0 39 -28 67t-67 28t-67 -28t-28 -67t28 -67t67 -28t67 28t28 67zM295 155q0 39 -28 67t-67 28t-67 -28t-28 -67t28 -67t67 -28t67 28t28 67z" />
    <glyph glyph-name="guillemotright" unicode="&#xbb;" horiz-adv-x="650" 
d="M605 155q0 -64 -45.5 -109.5t-109.5 -45.5q-78 0 -125 63q-47 -63 -125 -63q-64 0 -109.5 45.5t-45.5 109.5t45.5 109.5t109.5 45.5q47 0 68 36q-25 -10 -54 -10q-41 0 -68 20q-30 22 -30 62q0 49 38 75q31 21 75 19q52 -2 83 -43q27 -36 27 -86q0 -64 -49 -102
q20 -14 35 -34q47 63 125 63q64 0 109.5 -45.5t45.5 -109.5zM268 427q-3 26 -47 26q-45 0 -45 -35q0 -25 48 -25q49 0 44 34zM545 155q0 39 -28 67t-67 28t-67 -28t-28 -67t28 -67t67 -28t67 28t28 67zM295 155q0 39 -28 67t-67 28t-67 -28t-28 -67t28 -67t67 -28t67 28
t28 67z" />
    <glyph glyph-name="onequarter" unicode="&#xbc;" horiz-adv-x="327" 
d="M527 323q0 -90 -110 -116q35 -34 35 -79q0 -57 -53 -94q-49 -34 -115 -34t-115 34q-53 37 -53 94q0 48 41 83q-112 34 -112 127q0 52 33 82t85 30q36 0 63 -21q30 -24 30 -62q0 -39 -27 -63.5t-69 -24.5q-7 0 -15 1q47 -25 140 -25q182 0 182 68q0 67 -93 67h-34
q-30 0 -30 30t30 30h117q38 -39 49 -56q21 -33 21 -71zM163 390q-51 0 -51 -27q0 -24 48 -24q36 0 36 26q0 25 -33 25zM392 128q0 24 -28 44q-31 23 -80 23t-78.5 -21.5t-29.5 -45.5q0 -25 28 -45q31 -23 80 -23t80 23q28 20 28 45z" />
    <glyph glyph-name="onehalf" unicode="&#xbd;" horiz-adv-x="570" 
d="M525 341q1 -107 -106 -140q33 -30 33 -73q0 -57 -53 -94q-49 -34 -115 -34t-115 34q-53 37 -53 94q0 43 33 73q-104 33 -104 137q0 52 29 82t82 30q37 0 63.5 -25t26.5 -62q0 -39 -33 -64q-28 -20 -60 -20q-14 0 -27 3q35 -37 158 -37q121 0 158 36q-9 -2 -20 -2
q-32 0 -62 21q-36 25 -36 65q0 37 26.5 62t63.5 25q53 0 81.5 -30t29.5 -81zM422 339q37 0 37 25q0 28 -45 28q-29 0 -29 -24q0 -29 37 -29zM156 390q-45 0 -45 -26q0 -25 42 -25q33 0 33 26q0 25 -30 25zM392 128q0 21 -26 38q-30 19 -82 19t-82 -19q-26 -17 -26 -38
q0 -25 28 -45q31 -23 80 -23t80 23q28 20 28 45z" />
    <glyph glyph-name="threequarters" unicode="&#xbe;" horiz-adv-x="670" 
d="M625 186q0 -86 -52 -138q-47 -49 -113 -49q-80 0 -125 69q-46 -69 -125 -69q-66 0 -113 49q-52 52 -52 138q0 264 153 264q57 0 85 -38q24 -31 24 -79q0 -30 -15 -54h77q-16 24 -16 54q0 46 29 79q33 38 90 38q153 0 153 -264zM530 334q0 56 -58 56q-49 0 -49 -57
q0 -21 17.5 -37.5t39.5 -16.5q50 0 50 55zM247 333q0 57 -49 57q-58 0 -58 -56q0 -55 50 -55q22 0 39.5 16.5t17.5 37.5zM565 186q0 42 -4 75q-32 -36 -90 -36h-279q-51 0 -83 36q-4 -33 -4 -75q0 -61 32 -96q29 -31 71 -31q40 0 70 30t30 81q0 32 31 32q30 0 30 -31
q0 -51 30 -83q28 -28 67 -28q41 0 68 31q31 34 31 95z" />
    <glyph glyph-name="questiondown" unicode="&#xbf;" horiz-adv-x="670" 
d="M625 186q0 -86 -52 -138q-47 -49 -113 -49q-80 0 -125 69q-46 -69 -125 -69q-66 0 -113 49q-52 52 -52 138q0 264 153 264q57 0 85 -38q24 -31 24 -79t-35 -78t-80 -30q-52 0 -83 36q-4 -33 -4 -75q0 -61 32 -96q29 -31 71 -31q40 0 70 30t30 81q0 32 31 32q30 0 30 -31
q0 -51 30 -83q28 -28 67 -28q41 0 68 31q31 34 31 95q0 42 -4 75q-31 -36 -85 -36q-49 0 -84 29q-39 31 -39 79q0 46 29 79q33 38 90 38q153 0 153 -264zM530 334q0 56 -58 56q-49 0 -49 -57q0 -21 17.5 -37.5t39.5 -16.5q50 0 50 55zM247 333q0 57 -49 57q-58 0 -58 -56
q0 -55 50 -55q22 0 39.5 16.5t17.5 37.5z" />
    <glyph glyph-name="Agrave" unicode="&#xc0;" horiz-adv-x="248" 
d="M145 638q59 -47 59 -123q0 -52 -30 -87q-33 -38 -88 -38h-112v60h112q28 0 43.5 18.5t15.5 45.5q0 50 -40 80q-12 8 -12 21q0 12 10 21.5t22 9.5q11 0 20 -8z" />
    <glyph glyph-name="Aacute" unicode="&#xc1;" horiz-adv-x="653" 
d="M467 241q0 -22 -16 -38t-38 -16q-35 0 -49 32q-26 -26 -26 -65q0 -43 25.5 -68.5t70.5 -25.5q53 0 85 47q30 44 30 107q0 71 -39 120q-43 56 -120 56h-410v60h410q105 0 165 -75q53 -66 53 -162q0 -87 -44 -147q-49 -66 -130 -66q-70 0 -113 43.5t-43 110.5q0 52 32 95
q37 50 94 48q26 -1 44.5 -16t18.5 -40z" />
    <glyph glyph-name="Acircumflex" unicode="&#xc2;" 
d="M-63 482q-14 -44 -56 -70q-36 -22 -77 -22q-30 0 -30 30t30 30q47 0 68 36q-25 -10 -54 -10q-41 0 -68 20q-30 22 -30 62q0 49 38 75q31 21 75 19q52 -2 83 -43q27 -36 27 -85q0 -23 -6 -42zM-128 567q0 26 -46 26t-46 -35q0 -26 47 -26t45 35z" />
    <glyph glyph-name="Atilde" unicode="&#xc3;" horiz-adv-x="400" 
d="M355 322q0 -63 -50 -98q-42 -29 -100 -29q-60 0 -100 40v-10q-1 -67 34.5 -116t85.5 -49q45 0 84 25q8 6 17 6q12 0 20.5 -10t8.5 -22q0 -15 -14 -24q-54 -35 -116 -35q-82 0 -134 74q-46 66 -46 151q0 225 163 225q62 0 101 -29q46 -34 46 -99zM208 390
q-40 0 -60.5 -18.5t-20.5 -44.5q0 -28 21.5 -50t56.5 -22q43 0 67.5 21t24.5 49q0 26 -22 45q-25 20 -67 20z" />
    <glyph glyph-name="Adieresis" unicode="&#xc4;" horiz-adv-x="322" 
d="M84 0q-81 0 -136 54.5t-55 132.5q0 30 30 30t30 -30q0 -53 37 -90t94 -37q58 0 93 51q32 47 32 114t-33 113q-37 52 -100 52q-30 0 -30 30t30 30q91 0 145 -70q47 -63 47 -155q0 -91 -46 -155q-52 -70 -138 -70z" />
    <glyph glyph-name="Aring" unicode="&#xc5;" horiz-adv-x="175" 
d="M67 103q3 34 3 59q0 120 -68 210q-7 9 -7 18q0 12 9.5 21t21.5 9q14 0 23 -12q82 -107 82 -255q0 -118 -58 -196q-65 -87 -187 -95q-99 -6 -166 41q-76 53 -76 156q0 30 30 30t30 -30q0 -66 47 -104q44 -35 110 -35q77 0 135 46q65 51 71 137z" />
    <glyph glyph-name="AE" unicode="&#xc6;" horiz-adv-x="654" 
d="M475 241q0 -22 -16 -38t-38 -16q-32 0 -47 28q-22 -26 -22 -61q0 -43 25.5 -68.5t70.5 -25.5q48 0 76 40q26 37 26 93q0 77 -44 133q-49 64 -132 64t-110 -10q-56 -20 -52 -90q1 -24 8 -72q6 -42 6 -74q0 -66 -44.5 -105t-108.5 -39q-78 0 -129.5 53.5t-51.5 133.5
q0 30 30 30t30 -30q0 -55 33.5 -91t87.5 -36q42 0 67.5 23t25.5 61q0 28 -7 72t-7 74q0 102 68 137q46 23 154 23q110 0 176 -82q59 -74 59 -174q0 -81 -41 -135q-44 -59 -120 -59q-70 0 -113 43.5t-43 110.5q0 52 32 95q37 50 94 48q23 -1 40 -17t17 -39z" />
    <glyph glyph-name="Ccedilla" unicode="&#xc7;" horiz-adv-x="543" 
d="M365 241q0 -22 -15.5 -38t-38.5 -16q-31 0 -47 28q-22 -26 -22 -61q0 -43 25.5 -68.5t70.5 -25.5q49 0 77 40q25 37 25 93q0 77 -43 133q-50 64 -133 64q-82 0 -110 -10q-55 -20 -52 -90q2 -23 13 -97q10 -66 9 -100q-1 -110 -63 -174t-170 -64q-96 0 -168 49
q-83 57 -82 155q0 30 30 30t30 -30q0 -65 57 -106q54 -38 133 -38q82 0 129 54q45 50 45 129q0 31 -11.5 94.5t-11.5 97.5q0 102 69 137q45 23 153 23q111 0 177 -82q58 -74 58 -174q0 -81 -40 -135q-44 -59 -121 -59q-70 0 -113 43.5t-43 110.5q0 52 33 95q37 50 93 48
q23 -1 40 -17t17 -39z" />
    <glyph glyph-name="Egrave" unicode="&#xc8;" horiz-adv-x="220" 
d="M224 -90q-4 -102 -54 -181q-59 -92 -150 -92q-85 0 -133 53q-46 50 -46 133q0 63 27 109q34 57 96 57q114 0 114 -121q0 -44 -35 -72t-81 -28q-35 0 -62 17q18 -93 120 -93q60 0 103 65.5t46 155.5q3 89 -39 161t-97 72q-28 0 -28 28q0 27 28 27q89 0 145 -100
q50 -88 46 -191zM23 -132q0 37 -12.5 51.5t-46.5 14.5q-20 0 -41.5 -21t-18.5 -40q8 -50 58 -50q24 0 42.5 13t18.5 32z" />
    <glyph glyph-name="Eacute" unicode="&#xc9;" horiz-adv-x="248" 
d="M205 517q0 -51 -30 -87q-32 -40 -88 -40h-112v60h112q58 0 58 67q0 31 -18.5 51.5t-48.5 15.5q14 -15 14 -36q0 -22 -16 -38t-38 -16t-38 16t-16 38q0 46 34 73q29 24 70 24q57 0 90 -44q27 -37 27 -84z" />
    <glyph glyph-name="Ecircumflex" unicode="&#xca;" horiz-adv-x="220" 
d="M132 72q94 -68 94 -200q0 -95 -53 -162q-57 -73 -153 -73q-85 0 -133 53q-46 50 -46 133q0 63 27 109q34 57 96 57q114 0 114 -121q0 -44 -35 -72t-81 -28q-35 0 -62 17q18 -93 120 -93q72 0 113 56q37 50 37 123q0 72 -35 122q-39 56 -102 56q-29 0 -29 28q0 27 29 27
q57 0 77 19q14 14 13 50q-2 57 -90 57q-28 0 -28 28q0 27 28 27q72 0 112 -38q35 -34 35 -83q0 -63 -48 -92zM23 -132q0 37 -12.5 51.5t-46.5 14.5q-20 0 -41 -22.5t-19 -38.5q5 -50 56 -50q24 0 43.5 13t19.5 32z" />
    <glyph glyph-name="Edieresis" unicode="&#xcb;" horiz-adv-x="619" 
d="M425 440q0 -22 -16 -38t-38 -16q-29 0 -45 24q-21 -25 -21 -59q0 -43 25.5 -68.5t70.5 -25.5q53 0 85 47q30 44 30 107q0 71 -39 120q-43 56 -120 56h-157q17 -31 17 -70q0 -51 -30 -87q-32 -40 -88 -40h-122v60h122q58 0 58 67q0 26 -13 46q-15 24 -39 24h-58
q-30 0 -30 30t30 30h310q105 0 165 -75q53 -66 53 -162q0 -87 -44 -147q-49 -66 -130 -66q-70 0 -113 43.5t-43 110.5q0 51 32 95q37 49 94 48q22 -1 38 -16.5t16 -37.5z" />
    <glyph glyph-name="Igrave" unicode="&#xcc;" 
d="M-76 -165h-37q24 -30 24 -68q0 -48 -39 -80.5t-91 -32.5t-91 32.5t-39 80.5q0 38 25 68h-32q-26 0 -26 26t26 26h115v62q0 26 26 26t26 -26v-62h113q26 0 26 -26t-26 -26zM-141 -233q0 24 -22 43t-56 19t-56 -19t-22 -43q0 -23 22 -42t56 -19t56 19t22 42z" />
    <glyph glyph-name="Iacute" unicode="&#xcd;" 
d="M-55 -222q0 -57 -25 -95q-30 -46 -84 -46q-66 0 -108 49q-28 -49 -79 -49q-50 0 -77.5 28t-27.5 66t26.5 66t71.5 28q33 0 58 -18q-4 43 -21 73t-42 30q-42 0 -42 -39q0 -26 -26 -26t-26 26q0 41 27 66t67 25q54 0 87 -56q29 -49 29 -118q0 -22 -4 -43q38 -56 87 -56
q57 0 57 89q0 132 -79 132q-26 0 -26 26t26 26q65 0 100 -54q31 -48 31 -130zM-306 -265q-26 38 -52 38q-21 0 -33.5 -12.5t-12.5 -29.5q0 -42 53 -42q31 0 45 46z" />
    <glyph glyph-name="Icircumflex" unicode="&#xce;" 
d="M-58 -198q0 -74 -34 -147q-7 -15 -22 -15q-28 0 -28 25q0 6 3 12q29 62 29 125q0 55 -39 84q-35 26 -95 27q-135 0 -135 -111q0 -44 27 -128q2 -5 2 -9q0 -25 -27 -25q-18 0 -24 18q-30 92 -30 144q0 88 61 130q48 33 126 33q76 -1 126 -37q60 -43 60 -126z" />
    <glyph glyph-name="Idieresis" unicode="&#xcf;" 
d="M-41 -64q0 -37 -37 -52q13 -20 13 -46q0 -56 -34 -88q-29 -29 -74 -29q-59 0 -94 45q-34 -46 -88 -46q-46 0 -78 33q-35 34 -35 88q0 53 41 78q32 20 64 16q17 0 29.5 -12.5t12.5 -30.5t-12.5 -30.5t-30.5 -12.5q-26 0 -38 24q-14 -11 -14 -32q0 -33 17 -50.5t40 -17.5
q26 0 46 20t20 54q0 26 26 26t26 -26q0 -34 20.5 -54t46.5 -20q24 0 40.5 16.5t16.5 48.5q0 27 -40.5 39t-36.5 34q4 24 22 24q7 0 24.5 -7t29.5 -7q25 0 25 17q0 6 -4.5 15.5t-4.5 15.5q0 25 28 25q16 0 26 -22q7 -17 7 -36zM-227 -338q0 -31 -38 -31q-39 0 -39 30
q0 6 3 12q0 1 21 61q2 8 13 8q13 0 16 -10q0 -1 14 -36q10 -25 10 -34z" />
    <glyph glyph-name="Eth" unicode="&#xd0;" 
d="M-148 -183q0 -17 -11.5 -28.5t-28.5 -11.5t-28.5 11.5t-11.5 28.5q0 16 11.5 28t28.5 12t28.5 -12t11.5 -28zM-59 -211q2 -13 2 -25q0 -59 -38 -93q-34 -31 -82 -31q-51 0 -83 34q-32 -34 -86 -34q-47 0 -79 25q-36 28 -36 75q0 76 82 92q46 9 47 9q26 9 26 33
q-1 39 -51 39q-52 0 -52 -43q0 -26 -26 -26t-26 26q0 51 37 76q28 19 67 19q51 0 80 -29q32 29 90 29q38 0 73 -26q40 -28 40 -66q0 -9 -3 -18q-5 -20 -24 -20q-27 0 -27 25q0 4 1 8q3 11 -15 28t-45 17q-59 0 -67 -36q0 -36 -28 -64t-78 -31q-29 -3 -39 -10t-10 -32
q0 -22 19 -35.5t44 -13.5q60 0 60 55q0 27 26 27t26 -26t17.5 -41t40.5 -15q27 0 46.5 19t19.5 54q0 9 -1 18q-4 29 26 29q23 0 26 -22z" />
    <glyph glyph-name="Ntilde" unicode="&#xd1;" 
d="M-79 -182h-16q21 -29 21 -66q0 -46 -30 -79q-32 -36 -80 -36q-59 0 -92 34q-32 -34 -86 -34q-47 0 -79 25q-36 28 -36 75q0 58 38 78q8 4 72 17q38 8 38 37q0 41 -44 41q-52 0 -52 -43q0 -26 -26 -26t-26 26q0 51 37 76q28 19 67 19q43 0 69.5 -25.5t26.5 -67.5
q0 -54 -38 -72q-36 -9 -73 -18.5t-37 -41.5q0 -22 19 -35.5t44 -13.5q60 0 60 55q0 27 26 27t26 -27q0 -54 66 -54q56 0 56 59q0 28 -15.5 49t-41.5 21h-34q-26 0 -26 26t26 26h31v70q0 27 27 27q25 0 25 -25v-72h57q26 0 26 -26t-26 -26z" />
    <glyph glyph-name="Ograve" unicode="&#xd2;" 
d="M-56 -226q0 -61 -38 -100q-35 -35 -83 -35q-54 0 -87 44q-33 -44 -87 -44q-49 0 -83 35q-38 39 -38 100q0 190 112 190q42 0 64 -28q17 -24 17 -59q0 -36 -25.5 -58t-59.5 -22q-32 0 -54 19q-2 -18 -2 -42q0 -40 20 -61.5t47 -21.5q26 0 45.5 19.5t19.5 52.5q0 27 27 27
q26 0 26 -26q0 -34 18.5 -53.5t44.5 -19.5t45 21.5t19 61.5q0 138 -87 138h-19q-26 0 -26 26t26 26h101q5 -15 16 -44q42 -55 41 -146zM-225 -429q0 -31 -38 -31t-38 30q0 6 2 12q1 1 21 61q3 8 13 8q13 0 16 -10q1 -1 14 -36q10 -26 10 -34zM-331 -123q0 35 -29 35
q-36 0 -36 -34q0 -33 29 -33q14 0 25 9.5t11 22.5z" />
    <glyph glyph-name="Oacute" unicode="&#xd3;" 
d="M-63 -198q8 -23 8 -45q0 -51 -38 -85t-86 -34q-47 0 -79 35q-32 -34 -86 -34q-47 0 -79 25q-36 28 -36 75q0 58 40 79q11 5 75 18q40 8 40 34q-1 42 -51 42q-52 0 -52 -43q0 -26 -26 -26t-26 26q0 51 37 76q28 19 67 19q51 0 79 -30q25 -27 24 -66q-1 -32 48 -32t49 38
t-34 38q-26 0 -26 26t26 26q38 0 62 -23.5t24 -66.5q0 -44 -33 -69q-29 -21 -68 -21q-47 0 -76 28q-26 -25 -85 -31q-42 -5 -42 -42q0 -22 19 -35.5t44 -13.5q60 0 60 55q0 27 26 27t26 -27q0 -54 54 -54q27 0 49 18t22 47q0 9 -3.5 21t-3.5 17q0 25 27 25q17 0 24 -17z" />
    <glyph glyph-name="Ocircumflex" unicode="&#xd4;" 
d="M285 -200q0 -66 -33 -112q-37 -51 -100 -51q-62 0 -102 43q-37 -43 -94 -43q-59 0 -99 40q-46 -40 -107 -40q-67 0 -114.5 47.5t-47.5 114.5q0 68 47.5 115.5t114.5 47.5q68 0 115.5 -47.5t47.5 -115.5q0 -44 -23 -82q26 -28 66 -28q38 0 61 34q21 31 21 76
q0 46 -23 78.5t-65 32.5q-26 0 -26 26t26 26q67 0 105 -51q34 -46 34 -112q0 -37 -12 -70q25 -40 75 -40q38 0 61 34q21 31 21 76q0 46 -23 78.5t-65 32.5q-26 0 -26 26t26 26q67 0 105 -51q34 -46 34 -111zM87 -422q0 -32 -37 -32q-39 0 -39 31q0 6 2 12q1 1 21 61
q3 8 13 8q14 0 17 -10q0 -2 13 -36q10 -26 10 -34zM-139 -201q0 46 -32.5 78.5t-78.5 32.5q-45 0 -77.5 -32.5t-32.5 -78.5q0 -45 32.5 -77.5t77.5 -32.5q46 0 78.5 32.5t32.5 77.5z" />
    <glyph glyph-name="Otilde" unicode="&#xd5;" 
d="M29 -232q0 8 6 16q21 28 21 61q0 27 -15 46t-40 19q-57 0 -57 -56q0 -7 1 -23t1 -24q0 -57 -32 -98q11 -24 11 -52q0 -37 -18 -77q-7 -15 -23 -15q-27 0 -27 25q0 6 3 12q17 38 12 69q-54 -34 -127 -34q-144 0 -143 75q0 48 54 70q38 16 89 16q86 0 136 -44q13 23 13 53
q0 103 -69 103q-24 0 -39 -14.5t-15 -37.5q0 -27 -26 -27t-26 27q0 20 -18.5 36t-43.5 16q-27 0 -43.5 -13t-16.5 -33q0 -7 4.5 -18t4.5 -16q0 -26 -27 -26q-16 0 -23 15q-12 24 -12 47q0 42 37 70q33 26 76 26q51 0 86 -37q31 37 82 37q54 0 86 -39q34 39 90 39
q55 0 83 -36q23 -30 23 -78q0 -41 -16 -73.5t-36 -32.5q-10 0 -18 8t-8 18zM-154 -284q-36 30 -101 30q-92 0 -91 -33q0 -24 91 -24q60 0 101 27z" />
    <glyph glyph-name="Odieresis" unicode="&#xd6;" 
d="M-59 -256q0 -51 -32.5 -79.5t-76.5 -28.5q-59 0 -92 44q-33 -43 -92 -43q-44 0 -75 26q-34 28 -34 74t25 69q-25 24 -25 59q0 45 31.5 70.5t81.5 25.5q26 0 26 -26t-26 -26q-61 0 -61 -44q0 -14 13 -24.5t34 -10.5q28 0 28 -26t-27 -26t-36 -7q-12 -8 -12 -34
q0 -22 17 -35.5t40 -13.5q27 0 46.5 18.5t19.5 54.5q0 27 26 27t26 -27q0 -35 20 -54t46 -19q24 0 40.5 14.5t16.5 41.5q0 42 -49 41q-27 -1 -27 26q0 25 25 25.5t38 12t13 24.5q0 36 -68 36q-26 0 -26 26t26 26q47 0 80 -19q40 -23 40 -69q0 -35 -27 -60q27 -24 27 -69z
" />
    <glyph glyph-name="multiply" unicode="&#xd7;" 
d="M-58 -201q0 -67 -47.5 -114.5t-115.5 -47.5q-67 0 -114.5 47.5t-47.5 114.5q0 68 47.5 115.5t114.5 47.5q68 0 115.5 -47.5t47.5 -115.5zM-110 -201q0 46 -32.5 78.5t-78.5 32.5q-45 0 -77.5 -32.5t-32.5 -78.5q0 -45 32.5 -77.5t77.5 -32.5q46 0 78.5 32.5t32.5 77.5z
M-179 -186q0 -16 -11.5 -27.5t-27.5 -11.5q-17 0 -28 11.5t-11 27.5t11 27.5t28 11.5q16 0 27.5 -11.5t11.5 -27.5z" />
    <glyph glyph-name="Oslash" unicode="&#xd8;" 
d="M-60 -218q2 -66 -33 -106t-83 -40q-51 0 -85 46q-34 -45 -87 -45q-47 0 -79 34q-35 37 -35 100q0 88 61 142q57 50 140 50q116 0 155 -83q44 -23 46 -98zM-149 -159q-32 4 -34 -31q0 -4 7 -8t16 -1q14 3 14 21q0 8 -3 19zM-112 -228q-19 -25 -53 -25q-28 0 -48 18
q-23 18 -21 47q2 62 56 78q-28 21 -83 21q-64 0 -106.5 -38t-42.5 -102q0 -40 19 -62q16 -19 41 -19t44 20t19 53q0 27 26 27t26 -27q0 -34 17.5 -53.5t42.5 -19.5q24 0 43 21.5t20 60.5z" />
    <glyph glyph-name="Ugrave" unicode="&#xd9;" 
d="M-56 -218q2 -66 -33 -106t-83 -40q-51 0 -85 46q-34 -45 -87 -45q-47 0 -79 34q-35 37 -35 100q0 88 61 142q57 50 140 50q116 0 155 -83q44 -23 46 -98zM-216 -418q0 -32 -38 -32t-38 31q0 6 2 12q0 1 21 61q3 7 13 7q13 0 16 -9q1 -2 14 -36q10 -26 10 -34zM-145 -159
q-32 4 -34 -31q0 -4 7 -8t16 -1q14 3 14 21q0 8 -3 19zM-108 -228q-19 -25 -53 -25q-28 0 -48 18q-23 18 -21 47q2 62 56 78q-28 21 -83 21q-64 0 -106.5 -38t-42.5 -102q0 -40 19 -62q16 -19 41 -19t44 20t19 53q0 27 26 27t26 -27q0 -34 17.5 -53.5t42.5 -19.5
q24 0 43 21.5t20 60.5z" />
    <glyph glyph-name="Uacute" unicode="&#xda;" 
d="M-54 -201q0 -65 -32 -111q-36 -51 -95 -51q-52 0 -83 28.5t-31 77.5q0 37 25 67q28 34 71 32q46 -1 46 -45q0 -18 -12.5 -30.5t-30.5 -12.5q-22 0 -35 22q-12 -13 -12 -33q0 -54 62 -54q34 0 54 32q19 28 19 70q0 46 -23 80.5t-66 37.5q-29 3 -49.5 -13t-20.5 -43.5
t-26 -27.5t-26 27.5t-20 44.5q-17 14 -42 14t-43 -13.5t-18 -35.5q0 -40 48 -41q27 -1 27 -30q0 -22 -28 -22q-21 0 -34 -11t-13 -24q0 -45 61 -45q26 0 26 -26t-26 -26q-50 0 -81.5 25.5t-31.5 71.5q0 34 25 58q-25 23 -25 70q0 45 34 74q31 26 75 26q59 0 92 -44
q33 44 90 44q66 0 107.5 -48.5t41.5 -114.5z" />
    <glyph glyph-name="Ucircumflex" unicode="&#xdb;" 
d="M-58 -159q0 -37 -26 -63t-63 -26h-325q-26 0 -26 26t26 26h245q-9 18 -9 37q0 37 26.5 63t62.5 26q37 0 63 -26t26 -63zM-110 -159q0 15 -10.5 26t-26.5 11q-15 0 -26 -11t-11 -26t11 -26t26 -11q16 0 26.5 11t10.5 26z" />
    <glyph glyph-name="Udieresis" unicode="&#xdc;" 
d="M-53 -216q0 -66 -34.5 -104.5t-81.5 -38.5q-51 0 -85 45q-34 -45 -88 -45q-46 0 -78 34q-35 37 -35 100q0 88 61 142q57 50 140 50q81 0 139 -48q62 -52 62 -135zM-216 -418q0 -32 -38 -32t-38 31q0 6 2 12q0 1 21 61q3 7 13 7q13 0 16 -9q1 -2 14 -36q10 -26 10 -34z
M-105 -216q0 58 -43 94.5t-106 36.5q-64 0 -106.5 -38t-42.5 -102q0 -40 19 -62q16 -19 41 -19t44 20t19 53q0 27 26 27t26 -27q0 -33 19 -53t43 -20q25 0 43 22.5t18 67.5zM-213 -150q0 -16 -11.5 -27.5t-27.5 -11.5t-27.5 11.5t-11.5 27.5t11.5 27.5t27.5 11.5t27.5 -11.5
t11.5 -27.5z" />
    <glyph glyph-name="Yacute" unicode="&#xdd;" 
d="M-56 -218q0 -66 -34.5 -104.5t-81.5 -38.5q-51 0 -85 45q-34 -45 -88 -45q-46 0 -78 34q-35 37 -35 100q0 88 61 142q57 50 140 50q81 0 139 -48q62 -52 62 -135zM-108 -218q0 58 -43 94.5t-106 36.5q-64 0 -106.5 -38t-42.5 -102q0 -40 19 -62q16 -19 41 -19t44 20
t19 53q0 27 26 27t26 -27q0 -33 19 -53t43 -20q25 0 43 22.5t18 67.5z" />
    <glyph glyph-name="Thorn" unicode="&#xde;" 
d="M-53 -216q0 -66 -34.5 -104.5t-81.5 -38.5q-51 0 -85 45q-34 -45 -87 -45q-47 0 -79 34q-35 37 -35 100q0 88 61 142q57 50 140 50q81 0 139 -48q62 -52 62 -135zM-216 -418q0 -32 -38 -32t-38 31q0 6 2 12q0 1 21 61q3 7 13 7q13 0 16 -9q1 -2 14 -36q10 -26 10 -34z
M-105 -216q0 58 -43 94.5t-106 36.5q-64 0 -106.5 -38t-42.5 -102q0 -40 19 -62q16 -19 41 -19t44 20t19 53q0 27 26 27t26 -27q0 -33 19 -53t43 -20q25 0 43 22.5t18 67.5z" />
    <glyph glyph-name="germandbls" unicode="&#xdf;" horiz-adv-x="192" 
d="M229 -311q16 -7 16 -24q0 -28 -27 -28q-6 0 -12 3q-84 38 -119 87q-40 -24 -88 -24q-65 0 -110 30q-52 34 -52 95q0 58 39 93q35 33 85 33q64 0 99 -51q20 -29 43 -86q37 53 37 121q0 57 -33.5 100.5t-83.5 54.5q-22 4 -22 26q0 13 9.5 22t23.5 5q69 -15 114 -71
q47 -59 47 -137q0 -103 -64 -174q29 -43 98 -75zM62 -223q-12 30 -47 94q-19 28 -54 28q-28 0 -48.5 -19t-20.5 -52q0 -31 28.5 -50.5t78.5 -19.5q34 0 63 19z" />
    <glyph glyph-name="agrave" unicode="&#xe0;" 
d="M-54 -163q0 -64 -34 -100t-80 -36q-53 0 -87 45q-34 -44 -90 -44q-45 0 -76 30q-35 33 -35 89q0 53 41 79q32 19 64 15q17 0 29.5 -12.5t12.5 -30.5q0 -17 -12.5 -29.5t-30.5 -12.5q-26 0 -38 23q-14 -11 -14 -32q0 -32 17 -50t40 -18q26 0 46 20t20 54q0 27 26 27
t26 -27q0 -33 19 -53t44 -20t42.5 21t17.5 62q0 56 -40 77q-15 7 -15 23q0 26 24 26q12 0 26 -10q57 -41 57 -116z" />
    <glyph glyph-name="aacute" unicode="&#xe1;" 
d="M-55 -161q0 -64 -34 -100t-80 -36q-53 0 -87 45q-34 -45 -90 -45q-45 0 -76 31q-35 33 -35 89q0 53 41 79q32 19 64 15q17 0 29.5 -12.5t12.5 -30.5q0 -17 -12.5 -29.5t-30.5 -12.5q-26 0 -38 23q-14 -11 -14 -32q0 -32 17 -50t40 -18q26 0 46 20t20 54q0 27 26 27
t26 -27q0 -33 19 -53t44 -20t42.5 21t17.5 62q0 56 -40 77q-15 7 -15 23q0 26 24 26q12 0 26 -10q57 -41 57 -116zM-217 -364q0 -32 -38 -32t-38 31q0 6 2 12q0 1 21 61q3 8 13 8q13 0 16 -10q1 -2 14 -36q10 -26 10 -34z" />
    <glyph glyph-name="acircumflex" unicode="&#xe2;" 
d="M-53 -218q0 -67 -38 -108q-35 -37 -84 -37q-47 0 -79 35q-32 -34 -86 -34q-47 0 -79 25q-36 28 -36 75q0 58 41 79q9 5 75 18q40 8 39 36q-2 40 -51 40q-52 0 -52 -43q0 -26 -26 -26t-26 26q0 51 37 76q28 19 67 19q49 0 76 -25.5t27 -62.5q0 -54 -40 -75q-1 0 -75 -20
q-40 -10 -40 -42q0 -22 19 -35.5t44 -13.5q60 0 60 55q0 27 26 27t26 -26t16.5 -41t39.5 -15q27 0 47 23.5t20 69.5q0 129 -83 129q-26 0 -26 26t26 26q135 0 135 -181z" />
    <glyph glyph-name="atilde" unicode="&#xe3;" 
d="M-53 -216q0 -66 -36.5 -105.5t-85.5 -39.5q-47 0 -79 36q-32 -34 -86 -34q-47 0 -79 25q-36 28 -36 75q0 58 41 79q9 5 75 18q40 8 39 36q-2 40 -51 40q-52 0 -52 -44q0 -26 -26 -26t-26 26q0 52 37 77q28 19 67 19q49 0 76 -26t27 -62q0 -55 -40 -75q-1 -1 -75 -20
q-40 -11 -40 -42q0 -22 19 -35.5t44 -13.5q60 0 60 55q0 27 26 27t26 -26t16.5 -41t39.5 -15q27 0 46 21q21 26 21 71q0 130 -83 130q-26 0 -26 26t26 26q135 0 135 -182zM-215 -436q0 -32 -38 -32t-38 31q0 6 2 12q0 1 21 61q3 8 13 8q13 0 16 -10q1 -2 14 -36
q10 -26 10 -34z" />
    <glyph glyph-name="adieresis" unicode="&#xe4;" horiz-adv-x="177" 
d="M197 -134q0 -55 -37 -87.5t-91 -32.5q-48 0 -80 19q-45 25 -45 80q0 51 70 100q-56 -2 -92 -38t-36 -92q0 -65 48 -104t123 -39q24 0 79 11q14 3 23.5 -6t9.5 -22q0 -21 -22 -26q-60 -12 -90 -12q-93 0 -157 51q-69 55 -69 147q0 80 54 132.5t134 52.5q26 0 56 -8
q31 31 31 71q0 75 -79 75q-27 0 -27 27q0 28 27 28q60 0 97 -34.5t37 -95.5q0 -52 -32 -93q68 -38 68 -104zM142 -134q0 39 -54 64q-31 -22 -60 -43.5t-29 -41.5q0 -44 70 -44q73 0 73 65z" />
    <glyph glyph-name="aring" unicode="&#xe5;" horiz-adv-x="283" 
d="M233 -202q1 -11 1 -22q0 -74 -58.5 -123.5t-132.5 -49.5q-70 0 -117.5 36t-47.5 86q0 57 65 103q39 27 39 44q0 48 -49 48q-22 0 -39 -11.5t-17 -29.5q0 -7 3 -14q11 -23 11 -39q0 -24 -22 -24t-28 18q-7 13 -13 27t-6 30q1 45 35 73q31 24 75 24q43 0 72 -25
q33 -28 33 -77q0 -34 -26 -61q-5 -5 -49 -37q-27 -20 -28 -38q-1 -32 31 -55t78 -23q59 0 100.5 39.5t34.5 93.5q-9 69 -94 178q-81 105 -84 173q-2 58 29 105q35 53 96 53q55 0 88 -32.5t33 -77.5q0 -51 -40 -87q-13 -13 -23 -13q-17 0 -17 27q0 22 11 34q15 16 15 36
q0 23 -19 40.5t-48 17.5q-68 0 -68 -89q0 -47 21 -83q18 -31 60.5 -86t59.5 -86q28 -50 35 -103z" />
    <glyph glyph-name="ae" unicode="&#xe6;" 
d="M-47 -30q0 -111 -88 -176q-79 -58 -193 -58q-155 0 -238 97q-9 9 -9 21t9.5 22t20.5 10q12 0 21 -11q65 -78 200 -78q90 0 149 42q68 47 68 131q0 30 30 30t30 -30z" />
    <glyph glyph-name="ccedilla" unicode="&#xe7;" 
d="M39 -261q0 -108 -93 -171q-83 -57 -205 -57q-79 0 -147 26q-72 26 -114 75q-8 9 -8 21t9 22t21 10q11 0 20 -11q32 -38 96 -61q60 -21 130 -21q96 0 159 40q72 45 72 127q0 30 30 30t30 -30z" />
    <glyph glyph-name="egrave" unicode="&#xe8;" 
d="M-67 -167q3 -64 -48 -110q-8 -7 -18 -7q-11 0 -19 8t-8 19t9 19q32 29 32 65q0 33 -26 57.5t-67 26.5q-42 2 -68.5 -22t-26.5 -59q0 -28 -26 -28q-27 0 -27 28q0 36 -29 58.5t-67 22.5q-40 0 -65 -25q-29 -28 -25 -79q2 -21 30 -44q10 -8 10 -20q0 -10 -8 -18.5t-19 -8.5
q-9 0 -17 6q-54 43 -54 107q0 54 40.5 94.5t104.5 40.5q79 1 126 -58q45 57 123 57q57 0 97 -33q44 -36 46 -97z" />
    <glyph glyph-name="eacute" unicode="&#xe9;" 
d="M-56 4q0 -33 -17 -59q-20 -27 -54 -33q51 -51 51 -133q0 -66 -34.5 -104.5t-81.5 -38.5q-51 0 -85 45q-34 -45 -90 -45q-45 0 -76 31q-35 33 -35 89q0 54 42 79q31 19 63 15q41 -5 41 -44q0 -18 -12.5 -30.5t-30.5 -12.5q-27 0 -38 24q-13 -11 -13 -31q0 -32 17 -50
t40 -18q26 0 46 20t20 54q0 27 26 27t26 -27q0 -33 19 -53t43 -20q26 0 43.5 22.5t17.5 67.5q0 61 -35.5 96t-94.5 35h-194q-26 0 -26 26t26 26h309q35 0 35 42q-1 26 25 26q27 0 27 -26z" />
    <glyph glyph-name="ecircumflex" unicode="&#xea;" 
d="M-51 -214q0 -76 -55 -116q-46 -33 -119 -33q-68 0 -114 20q-63 29 -63 93q0 50 52 63q52 8 104 15q62 14 80 65q-26 7 -53 7q-38 0 -66 -12q5 -10 5 -21q0 -17 -12.5 -29.5t-30.5 -12.5t-30.5 12t-12.5 30q0 44 50 65q40 18 100 18q33 0 59 -6v10q0 46 -12 59q-7 8 -7 19
t7.5 19.5t17.5 8.5t18 -9q28 -32 28 -97q0 -16 -2 -31q56 -37 56 -137zM-103 -214q0 54 -17 79q-31 -75 -130 -90q-17 -1 -58.5 -6.5t-41.5 -18.5q0 -61 125 -61q122 0 122 97z" />
    <glyph glyph-name="edieresis" unicode="&#xeb;" 
d="M-53 -166q0 -58 -30 -95q9 -12 17 -24q12 -19 12 -31q0 -24 -26 -25q-13 0 -27 19q-8 15 -17 29q-20 -9 -43 -9q-53 0 -87 45q-34 -45 -90 -45q-45 0 -76 31q-35 33 -35 89q0 53 41 79q32 19 64 15q17 0 29.5 -12.5t12.5 -30.5q0 -17 -12.5 -29.5t-30.5 -12.5
q-26 0 -38 23q-14 -11 -14 -32q0 -32 17 -50t40 -18q26 0 46 20t20 54q0 27 26 27t26 -27q0 -33 19 -53t44 -20q7 0 13 1l-56 90q-5 7 -5 14q0 26 28 26q13 0 21 -13l51 -81q8 19 8 46q0 56 -40 77q-15 7 -15 23q0 26 24 26q12 0 26 -10q57 -41 57 -116z" />
    <glyph glyph-name="igrave" unicode="&#xec;" 
d="M-55 -169q0 -54 -25 -91q-30 -42 -85 -42q-57 0 -84 37q-2 4 -30 71q-15 38 -47 38q-52 0 -52 -47q0 -27 23 -58q6 -7 6 -16q0 -26 -28 -26q-12 0 -20 11q-31 42 -31 94q0 94 102 94q53 0 78 -38q15 -35 31.5 -71.5t51.5 -36.5q26 0 43.5 27.5t17.5 61.5q0 33 -18 52
q-8 8 -8 17q0 27 27 27q24 0 38 -42q10 -32 10 -62z" />
    <glyph glyph-name="iacute" unicode="&#xed;" 
d="M-54 -178q0 -47 -33 -80t-81 -33q-53 0 -87 41q-34 -41 -88 -41q-47 0 -80 33t-33 80q0 48 33 81t80 33q54 0 88 -41q34 41 87 41q48 0 81 -33t33 -81zM-106 -178q0 26 -18 44t-44 18q-25 0 -43 -18t-18 -44q0 -25 18 -43t43 -18q26 0 44 18t18 43zM-281 -178
q0 26 -18 44t-44 18q-25 0 -43 -18t-18 -44q0 -25 18 -43t43 -18q26 0 44 18t18 43z" />
    <glyph glyph-name="icircumflex" unicode="&#xee;" 
d="M-54 -132q-1 -63 -72 -84q20 -23 20 -53q0 -42 -37.5 -68t-85.5 -26q-47 0 -83 25q-39 27 -39 69q0 32 24 57q-74 25 -74 91q0 38 24.5 60.5t63.5 22.5q26 0 46 -16q24 -18 24 -47q0 -56 -58 -65q30 -9 73 -9q122 0 122 43q0 42 -64 42q-26 0 -26 26t26 26h29
q39 0 63.5 -27.5t23.5 -66.5zM-313 -90q-30 0 -31 -13t28 -13q21 0 21 14q0 12 -18 12zM-158 -269q0 15 -17 27q-21 15 -54 15q-32 0 -53 -15q-17 -12 -17 -27q0 -14 17 -27q21 -15 53 -15q33 0 54 15q17 13 17 27z" />
    <glyph glyph-name="idieresis" unicode="&#xef;" horiz-adv-x="557" 
d="M511 515q9 -10 9 -21q0 -12 -9.5 -21.5t-21.5 -9.5t-22 10q-33 36 -91 36q-63 0 -89 -59h56q66 0 105.5 -31t39.5 -79q0 -45 -34 -77.5t-86 -32.5q-71 0 -113 49q-38 45 -40 111h-253v60h261q15 52 52 84q41 35 101 35q83 0 135 -54zM428 340q0 50 -85 50h-68
q2 -42 25 -69q25 -31 68 -31q28 0 45 17q15 14 15 33z" />
    <glyph glyph-name="eth" unicode="&#xf0;" horiz-adv-x="510" 
d="M436 390h-262q-29 0 -49 -20t-20 -48q0 -25 15.5 -46t37.5 -21h74q32 0 32 -31q0 -29 -31 -29h-75q-22 -1 -37 -21.5t-15 -44.5q0 -29 20 -49t48 -20q42 0 61 38q9 17 26 17q12 0 21.5 -8.5t9.5 -21.5q0 -7 -3 -14q-36 -71 -115 -71q-53 0 -90.5 37.5t-37.5 91.5
q0 57 43 96q-44 38 -44 97q0 53 37.5 90.5t91.5 37.5h262q29 0 29 -30t-29 -30z" />
    <glyph glyph-name="ntilde" unicode="&#xf1;" horiz-adv-x="574" 
d="M446 -13q0 -22 -16 -38t-38 -16q-36 0 -50 32q-26 -26 -26 -65q0 -94 86 -94q53 0 86 47q29 44 29 107q0 71 -38 120q-44 56 -121 56h-209q35 -44 53 -108q18 -60 16 -118q-4 -102 -54 -181q-59 -92 -150 -92q-85 0 -133 53q-46 50 -46 133q0 63 27 109q34 57 97 57
q113 0 113 -121q0 -44 -35 -72t-81 -28q-35 0 -62 17q18 -93 120 -93q60 0 103 65.5t46 155.5q3 72 -26 136t-72 87h-38q-28 0 -28 30q0 29 27 29h332q104 0 165 -75q53 -66 53 -162q0 -87 -44 -146q-49 -66 -130 -66q-69 0 -107.5 43t-38.5 111q0 52 33 95q37 50 93 48
q6 0 11 -2q22 -1 37.5 -16.5t15.5 -37.5zM17 -132q0 37 -12.5 51.5t-45.5 14.5q-21 0 -42.5 -21t-18.5 -40q8 -50 58 -50q24 0 42.5 13t18.5 32z" />
    <glyph glyph-name="ograve" unicode="&#xf2;" horiz-adv-x="475" 
d="M400 390h-260q-14 0 -24.5 -10.5t-10.5 -24.5t10.5 -24.5t24.5 -10.5h118q30 0 30 -30t-30 -30h-118q-14 0 -24.5 -10.5t-10.5 -24.5t10.5 -24.5t24.5 -10.5h94q30 0 30 -30t-30 -30h-94q-14 0 -24.5 -10.5t-10.5 -24.5t10.5 -24.5t24.5 -10.5h77q30 0 30 -30t-30 -30
h-77q-39 0 -67 28t-28 67q0 38 26 65q-26 27 -26 65t26 65q-26 27 -26 65q0 39 28 67t67 28h260q30 0 30 -30t-30 -30z" />
    <glyph glyph-name="oacute" unicode="&#xf3;" 
d="M74 -81q0 -18 -13.5 -30.5t-31.5 -12.5t-31 12.5t-13 30.5q0 43 44 43q45 0 45 -43zM-180 -83q0 -18 -13.5 -30.5t-31.5 -12.5t-31 12.5t-13 30.5q0 43 44 43q45 0 45 -43z" />
    <glyph glyph-name="ocircumflex" unicode="&#xf4;" horiz-adv-x="354" 
d="M310 225q0 -85 -46 -151q-51 -74 -134 -74q-62 0 -116 35q-14 9 -14 24q0 12 9 22t21 10q8 0 17 -6q39 -25 83 -25q50 0 85.5 49t34.5 116v10q-39 -40 -100 -40q-58 0 -99 29q-51 35 -51 98q0 65 46 99q39 29 101 29q163 0 163 -225zM150 255q35 0 57 22t22 50
q0 26 -21 44.5t-61 18.5q-42 0 -65 -19.5t-23 -45.5q0 -28 24.5 -49t66.5 -21z" />
    <glyph glyph-name="otilde" unicode="&#xf5;" horiz-adv-x="321" 
d="M274 390h-18q13 -26 13 -61q0 -59 -45 -93q-38 -29 -92 -29q-81 0 -108 43q-23 37 -23 59q0 17 12 25q7 5 20 5q21 0 23 -18q5 -54 76 -54q77 0 77 62q0 61 -55 61h-49q-30 0 -30 30t30 30h169v-60zM270 203z" />
    <glyph glyph-name="odieresis" unicode="&#xf6;" horiz-adv-x="150" 
 />
    <glyph glyph-name="divide" unicode="&#xf7;" horiz-adv-x="450" 
 />
    <glyph glyph-name="oslash" unicode="&#xf8;" horiz-adv-x="247" 
d="M334 -221q-4 -100 -54 -171q-58 -82 -150 -82q-179 0 -179 166q0 63 27 109q34 57 97 57q113 0 113 -121q0 -44 -35 -72t-81 -28q-35 0 -62 17q8 -42 39 -59q27 -14 81 -14q61 0 103.5 56.5t45.5 144.5q3 87 -38 145t-98 58q-28 0 -28 28q0 27 28 27q90 0 145 -85
q50 -76 46 -176zM133 -263q0 37 -12.5 51.5t-45.5 14.5q-21 0 -42.5 -21t-18.5 -40q8 -50 58 -50q24 0 42.5 13t18.5 32z" />
    <glyph glyph-name="ugrave" unicode="&#xf9;" 
d="M-52 -227q0 -61 -38 -100q-35 -35 -83 -35q-54 0 -87 44q-33 -44 -87 -44q-49 0 -83 35q-38 39 -38 100q0 190 112 190q42 0 64 -28q17 -24 17 -59q0 -17 -7 -32h37q-7 15 -7 32q0 34 22.5 60.5t65.5 26.5q112 0 112 -190zM-129 -123q0 34 -35 34q-29 0 -29 -35
q0 -13 11 -22.5t25 -9.5q28 0 28 33zM-327 -124q0 35 -29 35q-36 0 -36 -34q0 -33 29 -33q14 0 25 9.5t11 22.5zM-104 -227q0 24 -2 42q-22 -19 -59 -19h-195q-32 0 -54 19q-2 -18 -2 -42q0 -40 20 -61.5t47 -21.5q26 0 45.5 19.5t19.5 52.5q0 27 27 27q26 0 26 -26
q0 -34 18.5 -53.5t44.5 -19.5t45 21.5t19 61.5z" />
    <glyph glyph-name="uacute" unicode="&#xfa;" 
d="M-52 -227q0 -61 -38 -100q-35 -35 -83 -35q-54 0 -87 44q-33 -44 -87 -44q-49 0 -83 35q-38 39 -38 100q0 190 112 190q42 0 64 -28q17 -24 17 -59q0 -36 -25.5 -58t-59.5 -22q-32 0 -54 19q-2 -18 -2 -42q0 -40 20 -61.5t47 -21.5q26 0 45.5 19.5t19.5 52.5q0 27 27 27
q26 0 26 -26q0 -34 18.5 -53.5t44.5 -19.5t45 21.5t19 61.5q0 24 -2 42q-22 -19 -56 -19q-36 0 -63 22t-27 58q0 34 22.5 60.5t65.5 26.5q112 0 112 -190zM-129 -123q0 34 -35 34q-29 0 -29 -35q0 -13 11 -22.5t25 -9.5q28 0 28 33zM-327 -124q0 35 -29 35q-36 0 -36 -34
q0 -33 29 -33q14 0 25 9.5t11 22.5z" />
    <glyph glyph-name="ucircumflex" unicode="&#xfb;" 
d="M-149 -81q0 -18 -13.5 -30.5t-31.5 -12.5t-31 12.5t-13 30.5q0 43 44 43q45 0 45 -43zM-423 -83q0 -18 -13.5 -30.5t-31.5 -12.5t-31 12.5t-13 30.5q0 43 44 43q45 0 45 -43z" />
    <glyph glyph-name="udieresis" unicode="&#xfc;" 
d="M-279 -66q1 -5 1 -10q0 -15 -12.5 -26.5t-33.5 -11.5q-48 0 -48 37q0 7 3 14q1 2 30 87q2 7 14 6t14 -8q10 -26 32 -88z" />
    <glyph glyph-name="yacute" unicode="&#xfd;" horiz-adv-x="326" 
d="M278 77q0 -28 -28 -51q-7 -5 -41 -20q-24 -6 -50 -6h-69l-22 2l-42 6v30l74 -6l60 1q75 1 75 43q0 20 -17 31l-30 14l-48 18l-47 14l-15 5q-9 3 -15 8l-19 12l-11 15l-7 16l-2 18q0 32 31 54q12 9 42 20l50 6l38 -1l34 -3l47 -10v-25l-63 8l-44 3h-12l-31 -5
q-10 0 -26 -9q-24 -13 -24 -34q0 -8 4 -13l10 -10l20 -13q12 -6 36 -12l4 -2l10 -2l17 -6q15 -3 41 -15l28 -13l18 -15l13 -15q11 -17 11 -38z" />
    <glyph glyph-name="c274" unicode="&#xaf;" horiz-adv-x="405" 
d="M605 225q0 -118 -91 -177q-74 -48 -189 -48q-110 0 -185 47q-95 59 -95 178q0 96 21 147q32 78 115 78q51 0 81 -30t30 -81q0 -45 -34 -77.5t-78 -32.5t-75 25v-29q0 -84 67 -128q58 -37 153 -37q100 0 156 38q64 42 64 127q0 65 -33 113q-35 52 -87 52h-44q-30 0 -30 30
t30 30h134l14 -40l20 -20q56 -69 56 -165zM181 390q-56 0 -56 -49q0 -21 15 -36.5t40 -15.5q23 0 37.5 17t14.5 39q0 45 -51 45z" />
    <glyph glyph-name="c274" unicode="&#x2c9;" horiz-adv-x="405" 
d="M605 225q0 -118 -91 -177q-74 -48 -189 -48q-110 0 -185 47q-95 59 -95 178q0 96 21 147q32 78 115 78q51 0 81 -30t30 -81q0 -45 -34 -77.5t-78 -32.5t-75 25v-29q0 -84 67 -128q58 -37 153 -37q100 0 156 38q64 42 64 127q0 65 -33 113q-35 52 -87 52h-44q-30 0 -30 30
t30 30h134l14 -40l20 -20q56 -69 56 -165zM181 390q-56 0 -56 -49q0 -21 15 -36.5t40 -15.5q23 0 37.5 17t14.5 39q0 45 -51 45z" />
  </font>
</defs>
</svg>
