<?xml version="1.0" encoding="UTF-8" standalone="no"?>
<!-- Generator: Adobe Illustrator 18.1.0, SVG Export Plug-In . SVG Version: 6.00 Build 0)  -->

<svg
   xmlns:dc="http://purl.org/dc/elements/1.1/"
   xmlns:cc="http://creativecommons.org/ns#"
   xmlns:rdf="http://www.w3.org/1999/02/22-rdf-syntax-ns#"
   xmlns:svg="http://www.w3.org/2000/svg"
   xmlns="http://www.w3.org/2000/svg"
   xmlns:sodipodi="http://sodipodi.sourceforge.net/DTD/sodipodi-0.dtd"
   xmlns:inkscape="http://www.inkscape.org/namespaces/inkscape"
   version="1.1"
   id="Layer_1"
   x="0px"
   y="0px"
   width="40px"
   height="40px"
   viewBox="0 0 40 40"
   style="enable-background:new 0 0 40 40;"
   xml:space="preserve"
   inkscape:version="0.48.4 r9939"
   sodipodi:docname="line-icon-8.svg"><metadata
     id="metadata3261"><rdf:RDF><cc:Work
         rdf:about=""><dc:format>image/svg+xml</dc:format><dc:type
           rdf:resource="http://purl.org/dc/dcmitype/StillImage" /></cc:Work></rdf:RDF></metadata><defs
     id="defs3259" /><sodipodi:namedview
     pagecolor="#ffffff"
     bordercolor="#666666"
     borderopacity="1"
     objecttolerance="10"
     gridtolerance="10"
     guidetolerance="10"
     inkscape:pageopacity="0"
     inkscape:pageshadow="2"
     inkscape:window-width="1295"
     inkscape:window-height="744"
     id="namedview3257"
     showgrid="false"
     inkscape:zoom="5.9"
     inkscape:cx="20"
     inkscape:cy="20"
     inkscape:window-x="65"
     inkscape:window-y="24"
     inkscape:window-maximized="1"
     inkscape:current-layer="Layer_1" /><style
     type="text/css"
     id="style3233">
	.st0{fill:none;stroke:#585C5E;stroke-width:2;stroke-miterlimit:10;}
	.st1{fill:none;stroke:#69AA6F;stroke-width:2;stroke-miterlimit:10;}
</style><line
     class="st0"
     x1="29"
     y1="5"
     x2="11"
     y2="5"
     id="line3235" /><polyline
     class="st0"
     points="7,5 1,5 1,36 39,36 39,5 33,5 "
     id="polyline3237" /><rect
     x="29"
     y="3"
     class="st0"
     width="4"
     height="4"
     id="rect3239" /><rect
     x="7"
     y="3"
     class="st0"
     width="4"
     height="4"
     id="rect3241" /><rect
     x="6"
     y="15"
     class="st1"
     width="6"
     height="6"
     id="rect3243" /><rect
     x="17"
     y="15"
     class="st1"
     width="6"
     height="6"
     id="rect3245" /><rect
     x="28"
     y="15"
     class="st1"
     width="6"
     height="6"
     id="rect3247" /><rect
     x="6"
     y="26"
     class="st1"
     width="6"
     height="6"
     id="rect3249" /><rect
     x="17"
     y="26"
     class="st1"
     width="6"
     height="6"
     id="rect3251" /><rect
     x="28"
     y="26"
     class="st1"
     width="6"
     height="6"
     id="rect3253" /><line
     class="st0"
     x1="1"
     y1="11"
     x2="39"
     y2="11"
     id="line3255" /><path
     style="fill:#083967;fill-opacity:0.99543379"
     d="m 5.0847458,18.033898 0,-3.898305 3.898305,0 3.8983052,0 0,3.898305 0,3.898305 -3.8983052,0 -3.898305,0 0,-3.898305 z m 5.9322032,0 0,-2.033898 -2.0338982,0 -2.0338983,0 0,2.033898 0,2.033899 2.0338983,0 2.0338982,0 0,-2.033899 z"
     id="path3263"
     inkscape:connector-curvature="0" /><path
     style="fill:#083967;fill-opacity:0.99543379"
     d="m 5.0847458,29.050847 0,-3.898305 3.898305,0 3.8983052,0 0,3.898305 0,3.898306 -3.8983052,0 -3.898305,0 0,-3.898306 z m 5.9322032,-0.08475 0,-2.118644 -2.0338982,0 -2.0338983,0 0,2.118644 0,2.118644 2.0338983,0 2.0338982,0 0,-2.118644 z"
     id="path3265"
     inkscape:connector-curvature="0" /><path
     style="fill:#083967;fill-opacity:0.99543379"
     d="m 16.101695,29.050847 0,-3.898305 3.898305,0 3.898305,0 0,3.898305 0,3.898306 -3.898305,0 -3.898305,0 0,-3.898306 z m 5.932203,-0.08475 0,-2.118644 -2.033898,0 -2.033898,0 0,2.118644 0,2.118644 2.033898,0 2.033898,0 0,-2.118644 z"
     id="path3267"
     inkscape:connector-curvature="0" /><path
     style="fill:#083967;fill-opacity:0.99543379"
     d="m 16.101695,18.033898 0,-3.898305 3.898305,0 3.898305,0 0,3.898305 0,3.898305 -3.898305,0 -3.898305,0 0,-3.898305 z m 5.932203,0 0,-2.033898 L 20,16 l -2.033898,0 0,2.033898 0,2.033899 2.033898,0 2.033898,0 0,-2.033899 z"
     id="path3269"
     inkscape:connector-curvature="0" /><path
     style="fill:#083967;fill-opacity:0.99543379"
     d="m 27.118644,18.033898 0,-3.898305 3.898305,0 3.898305,0 0,3.898305 0,3.898305 -3.898305,0 -3.898305,0 0,-3.898305 z m 5.932203,0 0,-2.033898 -2.033898,0 -2.033898,0 0,2.033898 0,2.033899 2.033898,0 2.033898,0 0,-2.033899 z"
     id="path3271"
     inkscape:connector-curvature="0" /><path
     style="fill:#083967;fill-opacity:0.99543379"
     d="m 27.118644,29.050847 0,-3.898305 3.898305,0 3.898305,0 0,3.898305 0,3.898306 -3.898305,0 -3.898305,0 0,-3.898306 z m 5.932203,-0.08475 0,-2.118644 -2.033898,0 -2.033898,0 0,2.118644 0,2.118644 2.033898,0 2.033898,0 0,-2.118644 z"
     id="path3273"
     inkscape:connector-curvature="0" /></svg>